<?xml version="1.0" encoding="UTF-8" standalone="no"?>
<svg
   xmlns:dc="http://purl.org/dc/elements/1.1/"
   xmlns:cc="http://creativecommons.org/ns#"
   xmlns:rdf="http://www.w3.org/1999/02/22-rdf-syntax-ns#"
   xmlns:svg="http://www.w3.org/2000/svg"
   xmlns="http://www.w3.org/2000/svg"
   xmlns:sodipodi="http://sodipodi.sourceforge.net/DTD/sodipodi-0.dtd"
   xmlns:inkscape="http://www.inkscape.org/namespaces/inkscape"
   viewBox="0 0 6001.3335 6001.3335"
   height="6001.3335"
   width="6001.3335"
   xml:space="preserve"
   id="svg2"
   version="1.1"
   sodipodi:docname="a3.svg"
   inkscape:version="1.0.1 (c497b03c, 2020-09-10)"><sodipodi:namedview
     pagecolor="#ffffff"
     bordercolor="#666666"
     borderopacity="1"
     objecttolerance="10"
     gridtolerance="10"
     guidetolerance="10"
     inkscape:pageopacity="0"
     inkscape:pageshadow="2"
     inkscape:window-width="1202"
     inkscape:window-height="797"
     id="namedview23"
     showgrid="false"
     inkscape:zoom="0.078195341"
     inkscape:cx="2594.2881"
     inkscape:cy="3308.6288"
     inkscape:window-x="1920"
     inkscape:window-y="73"
     inkscape:window-maximized="0"
     inkscape:current-layer="g22"
     inkscape:object-paths="false"
     inkscape:snap-intersection-paths="false" /><metadata
     id="metadata8"><rdf:RDF><cc:Work
         rdf:about=""><dc:format>image/svg+xml</dc:format><dc:type
           rdf:resource="http://purl.org/dc/dcmitype/StillImage" /></cc:Work></rdf:RDF></metadata><defs
     id="defs6" /><g
     transform="matrix(1.3333333,0,0,-1.3333333,0,6001.3333)"
     id="g10"><g
       transform="scale(0.1)"
       id="g12"><g
         transform="scale(2.76104)"
         id="g18"><path
           id="path20"
           style="fill:none;stroke:#231f20;stroke-width:3.62181997;stroke-linecap:butt;stroke-linejoin:miter;stroke-miterlimit:10;stroke-dasharray:none;stroke-opacity:1"
           d="M 16300,1.81091 H 1.81091 V 16300 H 16300 Z" /></g><g
         transform="matrix(6.3436125,0,0,6.3617166,-58308.172,-58749.141)"
         id="g22"
         style="fill:#800000"><path
           id="path24"
           style="fill:#782121;fill-opacity:1;fill-rule:nonzero;stroke:none"
           d="m 15829.5,11443.5 c -7.1,21.1 -12.5,40.6 -15.9,58.2 -3.6,17.7 -5.3,37.2 -5.3,58.5 -14.2,0 -30.1,-1.8 -47.8,-5.4 -17.6,-3.5 -33.6,-5.2 -47.7,-5.2 v -106.1 z m 63.7,-1135.6 c -56.7,28.2 -123.9,42.4 -201.7,42.4 7.1,-35.4 14.1,-65.5 21.2,-90.2 7.1,-24.8 14.2,-51.4 21.3,-79.6 63.6,28.2 116.8,70.7 159.2,127.4 z m -159.2,2186.2 c -127.4,-77.8 -113.3,-123.8 42.5,-137.9 -14.3,35.3 -28.4,81.3 -42.5,137.9 z m 21.2,753.6 c 28.2,-7.1 56.5,-12.5 84.9,-15.9 28.3,-3.6 60.2,-8.9 95.5,-16 -14.2,56.6 -35.5,92 -63.7,106.2 -28.3,14.1 -60.2,14.1 -95.4,0 -35.5,-14.2 -69.1,-37.2 -100.9,-69 -31.9,-31.9 -58.4,-61.9 -79.6,-90.3 28.3,14.3 54.9,28.4 79.7,42.6 24.8,14.1 51.2,28.2 79.5,42.4 z m -74.3,2642.6 c -99,-7.1 -161,-37.2 -185.7,-90.2 -24.8,-53.1 -26.6,-113.2 -5.4,-180.4 21.2,-67.2 58.3,-134.5 111.5,-201.7 53,-67.2 104.4,-118.6 153.9,-153.9 -28.3,49.6 -56.6,100.8 -84.9,153.9 -28.4,53.1 -49.6,106.2 -63.7,159.3 -14.2,52.9 -15.9,106 -5.2,159.1 10.5,53 37.1,104.4 79.5,153.9 z m -233.4,-3587.2 c 49.4,-7.1 106.1,7 169.8,42.4 -14.2,14.1 -28.4,28.2 -42.5,42.5 -14.3,14.2 -28.4,24.7 -42.5,31.8 -35.4,-35.4 -63.7,-74.3 -84.8,-116.7 z m -10.7,2303.1 c 134.4,-42.6 237.1,-131 307.8,-265.3 7.1,42.4 3.5,88.4 -10.6,137.9 -14.2,49.6 -35.4,90.1 -63.7,122 -28.4,31.9 -63.8,51.2 -106.2,58.4 -42.5,7.1 -84.9,-10.6 -127.3,-53 z m -42.4,-3863.2 c -28.3,77.7 -46,155.6 -53.1,233.5 -7.1,77.7 14.1,152 63.6,222.9 14.1,-77.9 19.4,-153.9 16,-228.2 -3.6,-74.3 -12.4,-150.5 -26.5,-228.2 z m 254.6,1411.5 c -70.7,-14.2 -136.1,-42.6 -196.2,-85 -60.2,-42.4 -129.3,-67.1 -207,-74.2 70.7,-99 161,-162.8 270.6,-191.1 109.6,-28.4 221,-42.4 334.4,-42.4 0,77.8 -9,159.2 -26.7,244.1 -17.6,84.9 -76,134.4 -175.1,148.6 z m 0,1729.9 c -49.5,91.9 -125.6,138.1 -228.1,138.1 -102.6,0 -189.3,-28.3 -260.1,-85 -7.1,-28.3 -10.5,-74.3 -10.5,-138 49.5,42.5 107.9,79.5 175.1,111.4 67.2,31.9 125.5,12.4 175.1,-58.2 77.8,-120.5 85,-244.3 21.1,-371.6 -63.7,-127.3 -123.8,-247.6 -180.3,-360.8 99.1,99.1 183.9,215.8 254.7,350.2 70.7,134.4 88.4,272.4 53,413.9 z m -466.8,-4330.11 c 7,28.2 17.5,63.65 31.7,106.23 -14.2,6.97 -30.2,10.54 -47.8,10.54 -17.7,0 -33.6,0 -47.7,0 -14.2,-42.42 -21.2,-70.79 -21.2,-84.83 14.1,-7.14 42.4,-17.84 85,-31.94 z m 339.4,849.11 c 35.4,77.7 67.3,159.1 95.6,244 28.3,84.8 39,173.3 31.8,265.4 28.3,-21.3 54.9,-42.5 79.6,-63.7 24.8,-21.2 54.8,-42.5 90.3,-63.6 0,56.5 -7.2,120.1 -21.3,191 -14.2,70.7 -35.4,136.2 -63.7,196.2 -28.3,60.1 -67.2,108 -116.7,143.4 -49.6,35.3 -109.6,42.4 -180.4,21.2 -14.2,120.3 -37.1,237 -69,350.3 -31.9,113.2 -93.7,212.3 -185.6,297.1 35.3,-120.3 74.1,-238.9 116.5,-355.6 42.5,-116.7 46,-235.3 10.7,-355.4 l -159.1,-31.9 c -49.5,-99.1 -72.6,-205.2 -69.1,-318.4 3.6,-113.3 37.2,-219.4 101,-318.4 14,35.3 26.4,68.8 37,100.7 10.5,31.9 22.9,65.5 37.1,100.9 28.3,-77.8 56.7,-157.4 85,-238.8 28.2,-81.4 88.4,-136.2 180.3,-164.4 z m -191,4457.5 c 77.9,92 106.2,187.4 85,286.5 -21.3,99.1 -70.9,187.5 -148.6,265.3 -56.7,-35.4 -113.2,-79.7 -169.8,-132.6 -56.7,-53.1 -77.9,-118.6 -63.7,-196.3 49.6,21 95.6,49.4 138,84.8 -35.5,-77.9 -37.3,-145 -5.4,-201.6 31.9,-56.7 86.7,-92 164.5,-106.1 z M 14842.5,12335 c 56.6,-28.5 114.9,-48 175.1,-58.5 60.1,-10.5 118.4,-8.8 175.1,5.4 v 148.6 c -56.7,-35.4 -115,-60.2 -175.1,-74.3 -60.2,-14.2 -118.5,-21.2 -175.1,-21.2 z m 169.9,2939.8 c 14.1,14.1 26.4,31.8 36.9,53 10.6,21.2 23.2,42.4 37.4,63.8 -63.8,28.1 -124,67.1 -180.5,116.7 -56.7,-42.4 -84.8,-95.6 -84.8,-159.2 0,-63.8 24.5,-120.2 74.1,-169.8 l 31.9,191 c 14.1,-14.2 28.2,-30.2 42.4,-47.8 14.1,-17.6 28.3,-33.6 42.6,-47.7 z m -223,-3778.4 c 35.4,-56.6 58.4,-115 68.9,-175.1 10.6,-60.2 8.9,-122.1 -5.2,-185.7 84.8,42.4 152.1,107.9 201.7,196.4 49.5,88.4 77.7,182.1 84.8,281.2 7.1,99.1 -5.3,194.6 -37.1,286.5 -31.9,92 -83.2,169.8 -153.9,233.6 35.3,-70.9 40.7,-130.9 15.9,-180.5 -24.7,-49.5 -54.9,-97.2 -90.2,-143.2 -35.3,-46.1 -67.2,-93.8 -95.5,-143.3 -28.3,-49.6 -24.8,-106.1 10.6,-169.9 z m 307.8,2982.4 c -28.3,49.6 -72.6,83.1 -132.7,100.8 -60.2,17.7 -118.6,21.2 -175.2,10.7 -56.6,-10.7 -100.8,-35.4 -132.7,-74.3 -31.9,-39 -30,-90.3 5.5,-153.9 42.4,-56.6 91.8,-86.8 148.4,-90.2 56.7,-3.6 115,-1.9 175.3,5.3 60,7 120.2,8.7 180.3,5.2 60,-3.5 115,-33.6 164.5,-90.1 35.4,56.5 54.8,123.7 58.4,201.6 3.6,77.8 -8.8,146.9 -37.1,206.9 -28.4,60.1 -70.8,104.4 -127.5,132.7 -56.6,28.3 -127.2,21.2 -212,-21.2 49.5,-85 77.7,-162.9 84.8,-233.5 z m -360.8,-2578.9 c 35.2,56.5 37.1,98.9 5.2,127.2 -31.9,28.3 -76,28.3 -132.7,0 28.4,-42.4 70.8,-84.8 127.5,-127.2 z m -339.7,403.2 c 106.2,14.1 208.7,3.4 307.8,-31.9 99,-35.3 198.1,-67.2 297.2,-95.5 -85,70.7 -180.5,118.6 -286.6,143.3 -106.2,24.8 -212.2,33.7 -318.4,26.5 z m 1475.2,488.2 c 0,113.2 -56.6,180.4 -169.7,201.6 0,14.2 6.9,42.5 21.1,85 -63.7,21.2 -115,24.8 -153.8,10.5 -39,-14.2 -74.3,-37.2 -106.2,-69 -31.9,-31.9 -61.9,-67.2 -90.3,-106 -28.3,-39.1 -56.6,-72.6 -84.8,-100.8 -77.9,35.2 -116.7,81.2 -116.7,137.9 0,56.6 10.5,120.3 31.8,191 21.1,70.7 38.8,141.5 53,212.3 14.3,70.7 -3.4,137.9 -52.9,201.7 h -74.3 c -14.2,-21.4 -26.6,-44.3 -37.2,-69.1 -10.7,-24.8 -23,-47.7 -37.1,-68.9 -14.3,77.7 -40.7,153.9 -79.6,228.2 -39,74.3 -107.9,100.8 -207,79.5 70.7,-56.6 114.9,-118.5 132.6,-185.7 17.6,-67.2 24.7,-137.9 21.3,-212.2 -3.6,-74.3 -15.9,-146.9 -37.1,-217.7 -21.4,-70.7 -39.1,-141.5 -53.1,-212.2 84.8,-63.8 113.1,-118.6 84.8,-164.6 -28.4,-45.9 -79.5,-86.6 -153.9,-122 -74.3,-35.4 -157.4,-65.4 -249.3,-90.2 -92,-24.8 -159.2,-47.6 -201.6,-68.9 134.3,14.1 266.9,37.1 397.8,68.9 131,31.9 256.5,72.6 377,122.1 70.6,-14.2 137.7,-8.8 201.5,16 63.7,24.7 127.3,52.9 191,84.8 63.7,31.9 127.3,56.7 191.1,74.3 63.6,17.7 130.8,8.9 201.6,-26.5 z m -1379.7,275.9 c 92,-99.1 107.8,-196.3 47.7,-291.8 -60.1,-95.6 -139.6,-164.6 -238.7,-207 113.2,0 210.4,31.8 291.8,95.6 81.5,63.6 129.1,152 143.4,265.3 -35.5,35.3 -72.6,67.2 -111.5,95.5 -39,28.2 -83.1,42.4 -132.7,42.4 z m -222.9,-84.8 c -28.3,-56.7 -45.9,-102.7 -52.9,-138 49.5,0 88.4,-3.5 116.7,-10.6 l 31.7,95.5 c -21.2,7.1 -53,24.8 -95.5,53.1 z m 180.5,1581.2 c -70.9,-56.6 -138,-125.5 -201.7,-206.9 -63.8,-81.4 -84.9,-171.5 -63.6,-270.6 77.7,21.2 153.9,40.7 228.2,58.4 74.3,17.6 150.3,40.7 228.1,69 -35.4,106.1 -77.8,198 -127.3,275.8 -42.4,-56.6 -81.5,-102.6 -116.8,-137.8 14.1,35.2 24.6,70.7 31.8,106.1 7.1,35.3 14.2,70.8 21.3,106 z m -371.5,806.7 c 7.1,-28.3 12.4,-56.6 15.9,-85 3.4,-28.3 8.9,-56.6 16,-84.8 56.5,14.1 109.6,31.8 159.1,52.9 49.6,21.3 67.2,67.3 53.1,138.2 -42.4,0 -83.1,-1.9 -122,-5.5 -39,-3.5 -79.7,-8.8 -122.1,-15.8 z m 276,-774.8 c -14.2,7.2 -26.6,14.1 -37.2,21.3 -10.6,7.1 -23,14.1 -37.1,21.2 14.1,14 28.2,28.1 42.4,42.4 14.1,14.2 28.2,28.3 42.4,42.5 -63.8,35.3 -127.3,38.9 -191,10.6 -63.8,-28.3 -120.3,-63.6 -169.8,-106 49.5,-49.6 111.5,-88.6 185.8,-116.9 74.3,-28.3 129.1,0 164.5,84.9 z m -371.5,360.9 c 84.8,35.3 155.6,37.2 212.2,5.2 56.7,-31.9 107.9,-72.4 153.9,-122 46,-49.4 95.5,-97.3 148.6,-143.3 53.1,-46 118.6,-65.4 196.4,-58.3 106.1,-7.1 180.4,40.7 222.8,143.3 42.4,102.5 46,196.3 10.7,281.3 -7.2,-35.5 -8.9,-74.5 -5.3,-116.9 3.4,-42.4 1.7,-81.4 -5.3,-116.7 -35.4,49.6 -51.3,104.3 -47.8,164.6 3.4,60 -5.4,115 -26.5,164.5 -63.7,49.5 -127.4,95.5 -191,137.9 -63.7,42.4 -92.1,109.6 -85,201.7 -99,-49.5 -148.6,-99.1 -148.6,-148.6 0,-49.5 19.4,-99.1 58.4,-148.6 38.9,-49.5 84.8,-100.9 137.9,-153.9 53.1,-53 83.1,-111.4 90.3,-175.1 -35.3,49.5 -88.4,97.2 -159.2,143.2 -70.9,46 -143.3,79.6 -217.6,100.8 -74.3,21.2 -145.1,21.2 -212.2,0 -67.2,-21.2 -111.5,-74.3 -132.7,-159.1 z m 360.8,-1560.1 c -14.2,-85 -61.9,-145.2 -143.3,-180.5 -81.4,-35.4 -157.4,-17.8 -228,53.1 28.2,-49.5 65.3,-83.3 111.3,-100.9 45.9,-17.7 93.8,-23.1 143.3,-16 49.5,7.2 93.7,28.4 132.6,63.8 39,35.3 65.4,81.3 79.7,138 28.3,63.7 33.5,125.6 15.9,185.7 -17.7,60.1 -49.6,113.1 -95.6,159.1 -45.9,46 -99,83.2 -159.1,111.5 -60.2,28.3 -122.1,49.5 -185.7,63.8 84.8,-56.7 164.4,-122.2 238.7,-196.5 74.3,-74.2 104.3,-167.9 90.2,-281.1 z m -382,116.8 c 21.2,21.1 42.4,40.6 63.6,58.3 21.2,17.7 42.4,37 63.8,58.4 -42.4,14 -81.5,12.2 -116.7,-5.5 -35.5,-17.6 -39.1,-54.8 -10.7,-111.2 z M 13813,10785.5 c 28.3,-7.2 53.1,-14.3 74.3,-21.4 21.2,-7.1 45.9,-14.1 74.3,-21.1 v 148.6 c -28.4,-14.2 -54.8,-30.1 -79.6,-47.8 -24.8,-17.6 -47.8,-37.2 -69,-58.3 z m 169.8,4011.7 c -141.5,28.2 -222.9,104.2 -244.1,228.1 -21.3,123.8 -10.6,242.2 31.8,355.6 -56.6,-49.6 -93.7,-116.8 -111.4,-201.6 -17.7,-85 -19.5,-162.9 -5.3,-233.6 14.1,-70.7 47.7,-123.8 100.8,-159.1 53,-35.5 129.1,-31.9 228.2,10.6 z m 1719.4,382.1 c -92,169.7 -215.8,305.9 -371.6,408.5 -155.7,102.5 -323.7,169.9 -504,201.7 -180.5,31.9 -362.7,28.4 -546.6,-10.7 -184.1,-39 -350.3,-115 -498.7,-228.1 -99.1,-63.8 -175.3,-143.3 -228.4,-238.9 -53.1,-95.5 -88.4,-199.8 -106,-313 -17.7,-113.3 -16,-226.5 5.2,-339.6 21.3,-113.3 53.1,-215.8 95.6,-307.7 56.6,-127.5 143.3,-228.3 260,-302.6 116.7,-74.3 240.4,-120.4 371.4,-138 131,-17.7 261.8,-5.3 392.7,37.1 131,42.4 238.9,116.9 323.7,223.1 -14.2,7 -31.9,12.2 -53.1,15.8 -21.2,3.6 -38.9,8.8 -53,15.9 -63.7,-84.8 -143.3,-145 -238.8,-180.3 -95.5,-35.5 -194.6,-49.7 -297.2,-42.6 -102.6,7.1 -199.9,35.5 -291.8,85 -91.9,49.5 -166.3,116.7 -222.9,201.7 -92,91.9 -153.9,203.3 -185.8,334.2 -31.9,131 -37.1,260.1 -15.9,387.5 21.2,127.2 69,244 143.3,350.1 74.3,106.2 171.5,187.5 292,244.2 134.3,63.6 282.8,104.3 445.6,121.9 162.7,17.7 321.9,10.7 477.6,-21.2 155.7,-31.9 297.2,-91.9 424.6,-180.3 127.2,-88.6 226.3,-207 297.2,-355.6 84.9,-169.8 141.4,-352 169.7,-546.6 28.3,-194.6 30.2,-389.2 5.4,-583.7 -24.8,-194.6 -77.9,-380.4 -159.3,-557.2 -81.4,-176.9 -189.3,-336.1 -323.7,-477.5 176.8,120.1 309.5,268.7 398,445.7 88.4,176.8 145.1,366.1 169.8,567.8 24.8,201.5 19.4,404.9 -15.9,610.2 -35.3,205.2 -88.4,396.2 -159.1,573.2 z M 13494.7,9862.07 c -14.3,-7.14 -32,-12.4 -53.2,-15.92 -21.3,-3.56 -38.9,-8.83 -53,-15.8 14.1,-42.58 21.2,-74.46 21.2,-95.53 14.1,0 28.2,1.7 42.4,5.27 14.1,3.4 28.3,5.26 42.6,5.26 z m 10.5,5964.63 c -21.3,7.1 -44.2,10.6 -69,10.6 -24.8,0 -47.8,3.5 -68.9,10.6 7,-21.4 10.5,-44.3 10.5,-69.1 0,-24.7 3.6,-47.8 10.7,-68.8 42.4,35.3 81.3,74.3 116.7,116.7 z m 148.6,-3640.3 c -77.8,14.1 -146.9,-1.9 -206.9,-47.8 -60.2,-46 -115.1,-97.3 -164.6,-153.9 14.1,-7.1 28.2,-10.5 42.4,-10.5 14.3,0 28.4,-3.6 42.6,-10.7 z m -413.9,-1496.5 c 14.1,-7.1 30,-12.5 47.7,-15.9 17.6,-3.6 33.6,-8.8 47.8,-16 -28.3,-42.4 -56.6,-77.8 -84.8,-106 106,-14.2 192.7,14.1 259.9,84.9 67.2,70.7 76.2,159.1 26.6,265.3 -134.5,-49.6 -233.6,-120.3 -297.2,-212.3 z m -74.3,1263 c 42.4,35.4 83.1,81.2 122.1,137.9 38.9,56.6 67.2,113.1 84.9,169.7 17.6,56.7 14.1,106.2 -10.7,148.6 -24.8,42.4 -83.1,70.8 -175.1,85 77.7,-77.8 98.9,-162.8 63.6,-254.7 -35.3,-92 -77.7,-177 -127.2,-254.7 6.9,-7.1 14.1,-12.4 21.2,-16 7.1,-3.5 14.1,-8.8 21.2,-15.8 z m -31.9,3873.8 c -42.4,-99.1 -44.3,-177 -5.3,-233.6 38.9,-56.7 97.3,-93.8 175.1,-111.4 77.9,-17.7 159.3,-17.7 244.2,0 84.8,17.6 152.1,58.3 201.7,122 -56.7,-14.2 -118.6,-26.6 -185.8,-37.1 -67.2,-10.6 -132.7,-10.6 -196.3,0 -63.8,10.5 -116.9,35.3 -159.3,74.3 -42.4,38.9 -67.2,100.8 -74.3,185.8 z m 583.7,-5731 c 49.6,63.6 102.5,116.7 159.2,159.1 56.6,42.4 127.4,63.6 212.4,63.6 0,14.1 6.9,35.3 21.2,63.8 -120.4,56.5 -247.9,95.4 -382.2,116.7 -134.4,21.2 -268.7,24.8 -403.1,10.6 35.3,-14.3 68.7,-28.4 100.6,-42.5 31.9,-14.2 65.5,-28.3 100.9,-42.4 -77.8,-14.2 -153.8,-14.2 -228.1,0 -74.3,14.1 -150.5,21.2 -228.2,21.2 63.6,-120.3 155.6,-210.5 275.8,-270.6 120.3,-60.2 244.2,-86.7 371.5,-79.5 z m -774.7,1390.2 c 0,-70.9 3.6,-123.8 10.6,-159.1 63.7,63.6 109.7,127.2 138,191 -28.3,-7.1 -53.1,-12.5 -74.3,-16.1 -21.2,-3.6 -46,-8.8 -74.3,-15.8 z m 106.2,1517.7 c 0,14.1 1.7,28.2 5.2,42.4 3.6,14.1 5.5,28.2 5.5,42.4 -14.3,7.1 -32.1,12.4 -53.3,16 -21.2,3.5 -38.9,12.4 -53,26.6 -7,-14.2 -12.5,-26.6 -15.9,-37.2 -3.5,-10.7 -8.8,-23 -15.9,-37.1 14.1,-7.2 35.3,-24.9 63.8,-53.1 z m -233.5,0 c 0,-85 10.6,-162.8 31.8,-233.5 35.3,35.3 61.9,70.7 79.5,106.1 17.7,35.3 19.6,77.9 5.5,127.4 z m 0,-445.8 c 92,0 175.1,21.2 249.4,63.6 74.3,42.4 143.2,92.1 207,148.7 -42.6,14.1 -92.1,23 -148.7,26.5 -56.7,3.4 -109.7,-3.5 -159.2,-21.2 -49.5,-17.7 -90.1,-42.4 -122,-74.3 -31.9,-31.9 -40.7,-79.6 -26.5,-143.3 z m 95.5,-1825.5 c -21.3,-63.7 -77.8,-102.6 -169.8,-116.7 56.6,56.5 113.2,95.4 169.8,116.7 z m -159.2,2282 c 28.3,21 54.7,42.2 79.5,63.6 24.8,21.2 51.3,45.9 79.7,74.3 -63.7,28.2 -141.6,28.2 -233.5,0 28.3,-35.4 53,-81.4 74.3,-137.9 z m 74.3,307.7 c -56.7,21.1 -99.1,24.6 -127.4,10.5 -28.4,-14.2 -42.5,-31.9 -42.5,-53 0,-21.3 14.1,-40.8 42.5,-58.4 28.3,-17.7 70.7,-15.9 127.4,5.4 z m -159.2,-3757.01 c 77.7,-7.13 127.3,19.37 148.5,79.57 21.2,60.08 24.8,121.97 10.7,185.79 -35.5,0 -67.4,-1.86 -95.6,-5.43 -28.3,-3.57 -60.2,-8.84 -95.4,-15.97 7,-42.42 12.3,-83.13 15.9,-121.98 3.4,-39.02 8.8,-79.56 15.9,-121.98 z m -95.5,4234.51 c -21.3,-49.4 -23,-90.2 -5.4,-122.1 17.6,-31.8 40.7,-53.1 69.1,-63.6 28.1,-10.6 58.2,-7.1 90.1,10.5 31.8,17.7 54.9,55 69.1,111.6 -78,28.2 -152.3,49.4 -222.9,63.6 z m 95.5,-328.9 c -77.8,28.2 -141.5,-0.1 -191,-85 l 159.2,-31.8 c 7,21.1 12.3,40.7 15.9,58.3 3.4,17.7 8.8,37.1 15.9,58.5 z m -159.2,626.2 c 70.7,28.1 99,70.6 84.9,127.2 -21.4,-7.1 -60.2,-17.6 -116.7,-31.7 6.9,-14.2 12.2,-30.2 15.8,-47.8 3.5,-17.7 8.8,-33.6 16,-47.7 z m 53,-785.5 c -49.5,-21.2 -99,-45.9 -148.6,-74.3 35.4,-7.1 67.2,-14.1 95.6,-21.2 28.3,-7.1 56.6,-14.1 84.9,-21.2 -14.2,56.7 -24.8,95.5 -31.9,116.7 z m -21.2,-148.6 c -85,-14.2 -145,-45.9 -180.3,-95.5 21,-14.2 44.1,-26.6 68.9,-37.1 24.7,-10.6 51.2,-23 79.6,-37.2 7.1,28.3 12.4,56.6 15.9,85 3.5,28.2 8.8,56.5 15.9,84.8 z m -180.3,-1655.6 c -7.2,-99.1 31.7,-176.9 116.7,-233.4 -7.1,49.5 -17.8,93.6 -31.9,132.6 -14.2,38.9 -42.4,72.5 -84.8,100.8 z m 74.3,-902.1 c -120.4,56.6 -173.5,145 -159.3,265.3 35.3,-42.4 63.6,-86.7 84.9,-132.7 21.1,-46 45.9,-90.2 74.4,-132.6 z m -169.8,1591.9 c 56.5,-56.6 109.6,-69 159.1,-37.1 49.5,31.9 60,83.1 31.9,154 -85,-7.1 -148.6,-46.1 -191,-116.9 z m 0,838.5 c 14,28.2 30,53 47.7,74.2 17.6,21.3 33.6,46 47.8,74.5 -56.7,-14.3 -95.7,-24.9 -116.9,-31.9 0,-14.3 3.6,-33.6 10.7,-58.4 7.1,-24.7 10.7,-44.3 10.7,-58.4 z m 870.1,-3215.75 c 42.4,56.52 63.8,121.98 63.8,196.25 0,74.3 -16,143.2 -47.8,207 -31.9,63.7 -76.1,114.9 -132.7,153.9 -56.6,38.8 -123.9,51.2 -201.6,37.1 -63.7,-7.1 -99.1,-42.4 -106.1,-106 -7.2,-63.8 -21.3,-120.3 -42.5,-169.8 -14.2,42.4 -24.8,84.8 -31.8,127.2 -7.2,42.4 -17.7,85 -32,127.4 -77.8,28.2 -148.6,21.2 -212.2,-21.2 -63.7,-42.4 -109.7,-99 -137.9,-169.8 -28.3,-70.8 -35.5,-141.5 -21.2,-212.22 14.1,-70.9 60,-120.45 137.9,-148.65 247.7,84.89 502.4,77.87 764.1,-21.18 z m -933.9,3576.65 c 21.2,28.2 46,70.6 74.3,127.3 h -116.7 c 14.1,-28.4 28.2,-70.8 42.4,-127.3 z m 382,-859.8 c 28.4,-148.5 44.3,-297 47.9,-445.6 3.4,-148.6 5.3,-297.2 5.3,-445.9 0,-148.6 3.4,-295.3 10.5,-440.4 7.1,-145 28.3,-288.3 63.8,-429.8 21.1,198.1 21.1,396.1 0,594.2 -21.4,198.2 -17.9,396.3 10.6,594.5 -7.1,91.9 -3.7,189.2 10.5,291.8 14.1,102.6 24.7,205.2 31.8,307.9 7.1,102.5 0,199.8 -21.2,291.8 -21.2,91.9 -67.2,176.8 -138,254.7 -28.3,-77.9 -49.5,-161.1 -63.6,-249.5 -14.2,-88.5 7,-164.5 63.6,-228.1 14.3,35.3 23.1,72.4 26.7,111.4 3.4,38.9 8.8,76 15.9,111.5 35.3,-49.6 49.6,-100.9 42.4,-153.9 -7.1,-53.1 -17.8,-104.4 -31.9,-153.9 -106.1,14.1 -201.7,38.9 -286.5,74.3 28.2,7 54.8,10.6 79.6,10.6 24.8,0 51.2,3.5 79.7,10.6 -63.8,63.7 -139.8,102.5 -228.2,116.7 -88.5,14.1 -175.2,17.7 -260.1,10.7 77.8,-70.9 159.2,-136.3 244.1,-196.4 84.8,-60.1 183.8,-72.4 297.1,-37.2 z m -382,-10.5 c -120.3,42.4 -196.3,40.6 -228.2,-5.4 -31.9,-45.9 -38.8,-106 -21.2,-180.3 17.6,-74.3 54.7,-148.6 111.3,-222.9 56.7,-74.4 116.7,-122.2 180.5,-143.2 -21.2,42.4 -49.5,88.4 -84.8,137.9 -35.5,49.5 -62.1,100.8 -79.7,153.9 -17.7,52.9 -19.6,100.7 -5.3,143.1 14.2,42.4 56.6,81.5 127.4,116.9 z m -191,-2791.18 c 0,49.38 3.5,84.66 10.7,106.01 -21.4,0 -44.3,0 -69.1,0 -24.8,0 -47.8,3.57 -69.1,10.7 -7,-14.21 -10.5,-30.18 -10.5,-47.85 0,-17.61 -3.5,-33.58 -10.6,-47.68 56.6,-14.21 106.1,-21.18 148.6,-21.18 z m 10.7,6081.18 c -77.9,14.3 -129.2,1.9 -154,-37.2 -24.7,-39 8.9,-65.4 100.8,-79.5 14.1,14.1 23,31.7 26.5,53.1 3.6,21.2 12.4,42.4 26.7,63.6 z m 275.8,-10.5 c 21.2,-99.1 14.1,-177 -21.2,-233.6 -35.4,-56.7 -85,-93.8 -148.6,-111.5 -63.8,-17.7 -132.7,-15.9 -206.9,5.5 -74.4,21.1 -143.4,56.6 -207,106.1 63.6,-78 143.1,-148.7 238.8,-212.3 95.5,-63.8 196.3,-67.2 302.5,-10.6 56.5,56.5 93.7,130.9 111.3,222.8 17.6,91.9 -5.2,169.8 -68.9,233.6 z m -329,-5189.9 c -7.1,14.1 -10.6,26.5 -10.6,37.2 0,10.5 -3.6,22.9 -10.5,37.1 l 127.2,-31.9 c -28.4,106.2 -86.7,180.5 -175.1,222.9 -88.5,42.5 -182.2,70.7 -281.3,84.9 14.3,-56.7 24.8,-111.5 31.9,-164.4 7.2,-53.1 14.1,-107.9 21.3,-164.5 56.6,-7.2 107.8,-12.4 153.8,-16 46,-3.6 93.8,-5.3 143.3,-5.3 z m 169.9,1337.3 c -56.7,99 -127.6,175 -212.4,228.1 -84.9,53.1 -173.3,100.9 -265.2,143.3 -14.2,-28.3 -31.9,-53.1 -53.1,-74.3 99.1,-28.3 187.5,-76.2 265.3,-143.3 77.8,-67.2 166.3,-118.4 265.4,-153.8 z m 562.5,-1263 c -92.1,7 -148.7,38.8 -170,95.4 -21.1,56.7 -35.3,120.3 -42.4,191.2 -7.1,70.7 -19.5,137.9 -37.1,201.7 -17.6,63.6 -65.5,113.1 -143.2,148.6 -14.3,-21.4 -30.2,-44.3 -47.8,-69.1 -17.7,-24.7 -37.2,-51.4 -58.4,-79.5 -85,77.7 -187.6,116.7 -307.9,116.7 -120.2,0 -222.7,-42.6 -307.6,-127.4 106,35.3 187.4,37.1 244,5.2 56.6,-31.8 104.3,-79.5 143.3,-143.1 38.9,-63.8 70.7,-134.6 95.5,-212.4 24.8,-77.9 58.4,-145.1 101,-201.6 84.8,-63.7 185.6,-107.8 302.3,-132.7 116.7,-24.7 230,-26.6 339.6,-5.3 109.6,21.1 208.7,65.4 297.3,132.6 88.3,67.2 150.2,161 185.7,281.4 21.2,106 74.3,192.7 159.1,260 84.9,67.1 180.4,65.4 286.6,-5.3 -7.2,70.7 -35.3,120.3 -84.9,148.6 -49.5,28.2 -104.4,40.5 -164.5,37.1 -60.2,-3.5 -120.4,-21.2 -180.5,-53.1 -60.1,-31.9 -104.4,-69 -132.5,-111.4 -21.4,28.2 -40.9,54.8 -58.5,79.5 -17.7,24.8 -37.2,47.7 -58.2,69.1 -99.1,-21.4 -154.1,-63.8 -164.6,-127.4 -10.7,-63.7 -14.2,-131 -10.7,-201.7 3.6,-70.7 -1.7,-136.2 -15.9,-196.3 -14.3,-60.2 -70.7,-93.8 -169.7,-100.8 z m -1241.8,265.3 c -77.9,0 -125.7,-21.3 -143.3,-63.7 -17.7,-42.4 19.5,-70.8 111.4,-84.9 14.1,70.8 24.8,120.3 31.9,148.6 z m -180.5,74.4 c 49.5,-14.3 102.6,-14.3 159.3,0 -7.1,14 -10.7,28.1 -10.7,42.4 0,14.1 0,28.1 0,42.4 -14.2,7.1 -28.3,12.4 -42.4,15.9 -14.3,3.4 -28.3,8.9 -42.4,16 -14.3,-21.3 -35.5,-60.2 -63.8,-116.7 z m 159.3,4011.8 c -21.4,-21.4 -42.6,-42.6 -63.8,-63.8 -21.2,-21.4 -42.4,-46.1 -63.6,-74.3 91.9,-56.6 194.4,-77.9 307.7,-63.7 113.2,14.2 176.8,88.4 191,223 -120.2,98.9 -208.6,222.7 -265.3,371.4 -176.9,-35.5 -290.1,-134.6 -339.4,-297.1 h 95.5 c -14.3,-35.5 -28.5,-67.3 -42.6,-95.7 -14.2,-28.3 -28.3,-60.2 -42.4,-95.5 z m -21.2,-4903.3 c 77.7,-77.9 157.3,-115 238.7,-111.5 81.4,3.4 162.7,26.5 244.1,68.9 81.4,42.4 157.4,97.4 228.2,164.6 70.8,67.1 137.9,129.1 201.7,185.7 -85,14.1 -170,15.8 -254.8,5.3 -84.8,-10.7 -169.8,-19.5 -254.6,-26.5 42.4,28.2 88.3,49.4 137.9,63.6 49.5,14.1 95.5,31.8 138.1,53.1 -177,42.4 -350.3,37 -520.2,-15.9 -169.8,-53.1 -328.9,-122.1 -477.5,-207 56.5,-42.4 116.6,-63.6 180.3,-63.6 63.8,0 127.4,7 191.2,21.2 -14.3,-21.3 -23.2,-44.3 -26.7,-69.1 -3.5,-24.7 -12.3,-47.8 -26.4,-68.8 z m -350.3,445.6 c 21.2,-7.1 44.3,-14.1 69,-21.2 24.8,-7.1 51.3,-14 79.6,-21.2 7.1,14.1 10.7,31.7 10.7,53.2 0,21.1 3.4,38.8 10.5,53 -84.9,14.1 -141.5,-7.1 -169.8,-63.8 z m 180.5,2621.6 c -35.5,106 -37.3,196.3 -5.4,270.6 31.9,74.3 79.5,139.6 143.3,196.3 63.6,56.6 134.4,111.4 212.3,164.5 77.7,53 145,107.9 201.6,164.6 -56.6,-42.6 -125.6,-78 -206.9,-106.2 -81.4,-28.3 -159.2,-60.2 -233.5,-95.6 -74.3,-35.4 -139.7,-77.8 -196.4,-127.3 -56.7,-49.6 -91.9,-116.7 -106,-201.6 -14.3,-70.9 -1.9,-134.5 37.1,-191.1 38.9,-56.7 86.5,-93.9 143.2,-111.5 56.6,-17.7 107.9,-14.1 153.9,10.7 46,24.7 69,83.1 69,175.1 -63.8,-77.9 -134.5,-127.5 -212.2,-148.5 z m -222.9,1591.9 c 42.4,-14.2 84.8,-21.1 127.2,-21.1 42.4,0 85,-3.6 127.4,-10.7 l -31.7,95.5 z m 84.9,-2239.4 c -14.2,70.7 -28.4,123.8 -42.5,159.2 14.1,21.3 28.2,44.2 42.4,68.9 14.2,24.8 28.3,47.7 42.5,69.1 -56.6,7.1 -102.7,-3.6 -138,-31.9 -35.3,-28.3 -56.5,-60.2 -63.6,-95.5 -7.2,-35.3 1.7,-70.8 26.4,-106.1 24.8,-35.4 69.1,-56.6 132.8,-63.7 z m -148.6,530.6 c -7.1,-14.2 -12.5,-26.6 -15.9,-37.2 -3.6,-10.5 -8.8,-22.8 -16,-36.9 l 159.2,-31.9 c 7.1,14.1 14.1,31.7 21.2,52.9 7.1,21.2 14.2,38.9 21.4,53.1 z m -74.3,1761.8 c 70.6,14.3 120.2,46 148.6,95.5 -14.2,0 -32,1.7 -53.2,5.3 -21.2,3.6 -42.4,5.4 -63.6,5.4 -14.3,-42.5 -24.8,-77.8 -31.8,-106.2 z m 350.2,-137.9 c -162.8,14.1 -304.4,-3.6 -424.5,-53.1 134.4,-56.7 290,-67.2 466.9,-31.7 z m -435.2,-1146.2 c 35.4,0 65.5,-1.9 90.3,-5.4 24.7,-3.5 51.2,-5.2 79.6,-5.2 14.1,56.6 8.8,99 -16,127.3 -24.8,28.2 -65.5,35.4 -121.9,21.3 -14.3,-56.7 -24.8,-102.7 -32,-138 z m 116.8,-4011.81 c 14.2,42.47 28.3,74.18 42.5,95.53 h -191 c 28.2,-14.21 53,-30.18 74.2,-47.79 21.2,-17.67 45.9,-33.64 74.3,-47.74 z m 541.3,4882.11 c -63.8,35.3 -148.6,63.5 -254.8,84.8 -106.2,21.3 -206.9,26.5 -302.5,16 -95.5,-10.7 -176.9,-40.7 -244.1,-90.3 -67.2,-49.5 -93.7,-130.9 -79.4,-244.1 84.8,-42.4 174.9,-79.6 270.5,-111.4 95.4,-31.9 192.8,-37.2 291.9,-15.8 v 191 c 28.2,-63.8 72.4,-107.9 132.7,-132.7 60,-24.8 118.4,-31.8 175,-21.3 56.7,10.5 109.8,37.1 159.3,79.6 49.6,42.4 81.3,95.5 95.5,159.3 49.5,63.5 67.2,125.5 53.1,185.7 -14.2,60.1 -44.2,109.6 -90.2,148.6 -46.2,38.8 -102.7,63.6 -169.8,74.3 -67.3,10.5 -132.7,1.7 -196.3,-26.6 v -127.3 c 28.1,-28.5 56.5,-54.9 84.8,-79.7 28.2,-24.8 53,-54.8 74.3,-90.1 z m -689.8,-2313.6 c -21.3,6.9 -40.8,12.2 -58.5,15.8 -17.7,3.5 -37.1,8.8 -58.4,15.9 84.9,21.2 173.4,38.9 265.4,53.1 91.9,14.1 173.3,49.5 244.1,106.2 -120.3,28.2 -235.3,24.6 -344.9,-10.7 -109.8,-35.4 -214.1,-81.4 -313,-137.9 v -74.3 c 28.2,6.9 53,14.1 74.1,21.2 21.3,7.1 42.4,14.1 63.8,21.2 -49.5,-49.6 -93.8,-107.9 -132.6,-175.1 -39,-67.2 -63.8,-137.9 -74.4,-212.2 -10.6,-74.3 -3.5,-145.2 21.3,-212.4 24.7,-67.2 72.4,-125.6 143.3,-175.1 98.9,28.2 144.9,76 137.8,143.2 -7.1,67.2 -22.9,138.1 -47.7,212.4 -24.8,74.3 -40.7,148.6 -47.8,222.9 -7.2,74.3 35.4,136.2 127.5,185.8 z m -106.2,2939.8 c -106.1,28.1 -178.6,26.4 -217.6,-5.4 -39,-31.9 -61.9,-81.5 -69.1,-148.6 -7.1,-67.3 -3.5,-139.8 10.7,-217.5 14.2,-77.9 21.4,-145.1 21.4,-201.8 77.7,0 157.2,10.6 238.7,31.9 81.4,21.3 129.1,77.9 143.3,169.9 -28.4,14.1 -56.7,24.6 -85,31.7 -28.3,7.1 -60.1,17.6 -95.5,31.9 106.2,-7.1 166.3,23.1 180.5,90.2 14.1,67.2 -24.8,122.1 -116.7,164.6 21,-7.2 44.1,-12.5 68.9,-15.9 24.7,-3.6 51.2,-12.4 79.6,-26.5 28.3,14.1 53.1,30 74.3,47.6 21.2,17.7 42.4,33.6 63.7,47.9 21.1,-7.1 53,-24.9 95.6,-53.1 63.6,56.5 111.2,132.5 143.2,228 31.9,95.5 30,182.2 -5.4,260.2 -42.4,56.6 -86.6,83 -132.6,79.6 -46.1,-3.6 -92.1,-16 -138,-37.1 -46,-21.4 -95.6,-46.2 -148.5,-74.3 -53.1,-28.4 -104.3,-39.1 -153.9,-31.9 -42.6,-63.8 -58.5,-127.4 -47.8,-191.1 10.5,-63.8 40.7,-123.8 90.2,-180.3 z m -350.2,159.1 c 70.7,-7.1 141.4,-7.1 212.3,0 -49.6,92 -123.9,127.3 -222.9,106.2 0,-14.2 1.7,-31.9 5.3,-53.1 3.5,-21.4 5.3,-39 5.3,-53.1 z m 127.3,594.3 c -35.4,49.5 -74.3,70.7 -116.7,63.6 -42.4,-7.1 -81.4,-28.3 -116.7,-63.6 z m -371.3,-1284.1 c 113.1,7 160.8,31.7 143.1,74.2 -17.6,42.4 -76,49.5 -175.1,21.4 z m -116.91,-4033 c 92.01,14.1 175.21,53 249.51,116.7 74.3,63.7 104.4,145.1 90.1,244.2 28.3,0 53.1,-1.9 74.3,-5.5 21.2,-3.5 46,-5.2 74.3,-5.2 7.1,63.6 23.1,136 47.8,217.5 24.8,81.4 8.9,146.9 -47.8,196.4 -91.9,21.2 -153.9,63.6 -185.8,127.4 -31.8,63.6 -44.2,134.4 -37.1,212.2 7.1,77.8 28.3,155.6 63.8,233.5 35.3,77.9 74.3,145 116.7,201.7 -106.2,-77.9 -189.3,-180.5 -249.4,-307.8 -60.2,-127.4 -79.7,-258.3 -58.4,-392.7 -63.7,-7.1 -118.53,-33.6 -164.52,-79.6 -46.09,-46.1 -76.16,-97.3 -90.21,-154 -14.27,-56.6 -7.13,-109.6 21.18,-159.1 28.32,-49.6 85,-77.9 169.85,-84.8 -14.2,-56.7 -28.33,-116.9 -42.43,-180.5 -14.22,-63.8 -24.81,-123.9 -31.88,-180.4 z m 180.51,5338.4 c -56.7,21.1 -116.8,31.8 -180.51,31.8 -63.77,0 -127.42,-7.1 -191.01,-21.2 84.83,-14.2 130.81,-42.6 137.89,-85 7.13,-42.4 5.26,-88.4 -5.27,-137.9 -10.53,-49.6 -15.8,-97.4 -15.8,-143.3 0,-46 31.77,-79.6 95.53,-100.8 49.57,70.7 88.37,143.3 116.67,217.6 28.2,74.3 42.5,153.9 42.5,238.8 z m 5540,-6060.06 c 21.2,0 49.5,0 84.9,0 35.4,0 67.2,3.39 95.6,10.53 28.2,7.08 49.3,17.67 63.6,31.88 14.1,14.1 7,38.85 -21.2,74.3 -63.8,28.2 -132.7,49.38 -207,63.65 -74.3,14.05 -145,31.71 -212.2,53.1 -67.2,21.2 -129.1,53.1 -185.8,95.5 -56.6,42.4 -95.5,106 -116.7,191 -403.4,870.3 -789,1740.6 -1156.8,2610.9 -368,870.3 -742.9,1747.5 -1125,2632.1 -21.3,49.5 -47.8,79.5 -79.7,90 -31.9,10.6 -63.6,5.3 -95.5,-15.9 -31.9,-21.2 -58.4,-51.2 -79.5,-90.1 -21.4,-39 -35.5,-76.1 -42.5,-111.5 -170,-438.7 -359.3,-866.8 -567.9,-1284.2 -208.7,-417.5 -394.5,-845.5 -557,-1284.1 -162.9,-438.7 -336.2,-872.1 -520.1,-1300.1 -184,-428.2 -375,-854.4 -573.1,-1278.8 -35.5,-63.8 -79.7,-115.2 -132.7,-154 -53.1,-39.1 -109.7,-70.8 -169.8,-95.6 -60.2,-24.72 -120.42,-53.03 -180.5,-84.92 -60.08,-31.93 -107.88,-76.05 -143.16,-132.56 191.01,-28.32 382.06,-28.32 573.06,0 191,28.2 385.6,28.2 583.8,0 84.8,0 171.5,-14.22 260,-42.53 88.4,-28.32 171.5,-17.67 249.4,31.88 -28.3,56.63 -74.3,95.48 -138.1,116.71 -63.7,21.24 -129.1,42.42 -196.3,63.77 -67.2,21.23 -127.4,49.55 -180.5,84.85 -53,35.3 -79.5,95.5 -79.5,180.5 35.2,219.2 91.9,436.8 169.8,652.6 77.9,215.8 162.8,426.4 254.8,631.6 99.1,42.4 203.4,67 313,74.2 109.6,7.1 219.3,8.8 328.9,5.4 109.6,-3.6 221.1,-7.1 334.4,-10.7 113.2,-3.6 222.9,5.3 329.1,26.6 35.3,35.3 49.4,79.4 42.3,132.5 -7.2,53.2 -10.6,100.9 -10.6,143.4 -99.1,7.1 -199.8,7.1 -302.4,0 -102.7,-7.1 -205.3,-12.4 -307.8,-16 -102.6,-3.5 -203.4,-1.8 -302.4,5.3 -99.1,7.1 -191.1,28.3 -275.9,63.8 162.7,466.8 337.8,933.9 525.3,1400.9 187.4,466.9 415.6,909.2 684.4,1326.7 226.4,-445.9 440.5,-895.1 642.1,-1347.9 201.6,-452.9 391,-912.9 567.9,-1379.7 -176.9,-49.6 -353.9,-70.9 -530.7,-63.8 -176.9,7.1 -353.8,0 -530.6,-21.1 0,-42.5 1.7,-92.1 5.2,-148.7 3.6,-56.6 37.2,-88.4 101,-95.4 162.7,-7.1 325.3,-7.2 488.2,-0.1 162.7,7.1 325.4,14.2 488.1,21.3 56.6,0 99,-24.7 127.4,-74.3 28.2,-49.5 52.9,-95.5 74.3,-137.9 70.7,-205.3 146.7,-405.3 228.2,-599.7 81.4,-194.6 129.1,-401.5 143.3,-620.9 -14.2,-70.8 -44.3,-125.6 -90.3,-164.5 -46.1,-39.05 -97.3,-69.07 -153.9,-90.3 -56.7,-21.18 -118.5,-40.72 -185.7,-58.33 -67.2,-17.67 -125.5,-37.21 -175.1,-58.22 7,-14.27 10.6,-28.48 10.6,-42.58 0,-14.27 0,-28.32 0,-42.42 318.4,7.08 629.7,23.05 934,47.8 304.2,24.8 611.9,19.37 923.3,-15.91 z M 9673.89,12133.3 c 14.1,-35.5 22.93,-69 26.5,-100.9 3.57,-31.9 12.4,-65.5 26.62,-100.8 35.28,7.1 72.43,14.1 111.44,21.2 38.85,7.1 79.57,14.2 121.98,21.4 -14.21,-35.5 -30.18,-69.1 -47.79,-101 -17.67,-31.8 -33.59,-65.4 -47.68,-100.7 14.09,-7.2 30.01,-10.7 47.68,-10.7 17.61,0 33.58,-3.6 47.79,-10.5 63.67,77.7 136.07,150.3 217.47,217.4 81.5,67.2 164.6,129.1 249.6,185.8 -127.4,-21.2 -254.8,-21.2 -382.2,0 -127.4,21.2 -251.24,14.1 -371.41,-21.2 z m 902.21,3629.7 c -177,-70.9 -334.4,-173.5 -472.3,-307.9 -138.1,-134.3 -247.68,-286.5 -329.11,-456.3 -81.43,-169.8 -125.55,-350.2 -132.68,-541.2 -7.08,-191 31.88,-375.1 116.77,-551.8 49.49,-70.9 70.72,-145.2 63.59,-223 -7.14,-77.8 -42.42,-145 -106.07,-201.7 113.2,21.3 196.34,-8.8 249.4,-90.2 53.1,-81.4 97.4,-168.1 132.7,-260 35.3,-92 77.8,-169.9 127.4,-233.5 49.5,-63.8 123.8,-67.2 222.9,-10.5 14.1,-35.5 28.2,-70.9 42.4,-106.2 14.1,-35.5 28.2,-70.8 42.4,-106.1 -77.8,-21.3 -145,-10.6 -201.7,31.8 -56.6,42.4 -107.9,90.2 -153.9,143.3 -45.9,53 -95.5,98.9 -148.6,138 -53.07,38.8 -118.53,44.1 -196.23,15.9 -56.68,-14.2 -81.43,-51.4 -74.29,-111.5 7.07,-60.2 3.51,-111.4 -10.54,-153.8 70.56,7.1 136.08,-7.2 196.28,-42.5 60.08,-35.4 116.68,-74.4 169.78,-116.8 53,-42.5 107.8,-77.9 164.4,-106 56.7,-28.4 120.3,-31.9 191.2,-10.8 63.6,21.3 125.6,26.6 185.6,16 60.1,-10.7 122,-21.4 185.8,-31.9 63.8,-10.6 127.4,-17.6 191.1,-21.2 63.7,-3.6 127.3,5.3 191.1,26.6 -77.9,35.3 -161,60.1 -249.4,74.3 -88.6,14.1 -175.3,28.2 -260.1,42.4 70.6,77.8 97.2,157.3 79.6,238.7 -17.7,81.5 -42.5,164.6 -74.3,249.6 -31.9,84.8 -51.2,166.2 -58.4,244.1 -7.1,77.7 35.3,148.4 127.4,212.3 -77.8,14 -148.6,12.2 -212.4,-5.5 -63.7,-17.6 -130.9,-37.1 -201.5,-58.2 -14.2,-56.6 -26.6,-115.2 -37.2,-175.2 -10.7,-60.1 -23,-118.5 -37.1,-175.1 -42.4,70.7 -88.4,146.7 -138,228.2 -49.5,81.4 -85,164.5 -106.1,249.4 -21.4,84.8 -23.1,166.2 -5.5,244.1 17.7,77.7 72.6,148.5 164.6,212.2 49.5,49.5 92,70.8 127.4,63.6 35.3,-7.1 63.6,-28.3 84.8,-63.6 21.2,-35.3 33.6,-77.7 37.2,-127.2 3.6,-49.6 -1.7,-95.7 -15.8,-138.1 70.6,7.1 116.6,38.9 137.9,95.5 21.2,56.6 22.9,115 5.3,175.1 -17.7,60 -51.2,113.1 -100.8,159.2 -49.5,46 -106.2,62 -169.8,47.9 -99.1,14.1 -173.4,-19.5 -222.9,-100.9 -49.6,-81.5 -102.63,-157.5 -159.15,-228.2 -120.45,198.1 -164.68,408.5 -132.79,631.4 31.88,222.9 122.09,419.3 270.64,589.2 70.8,183.9 187.5,320 350.4,408.5 162.7,88.4 337.7,132.6 525.2,132.6 187.5,0 364.5,-44.2 530.7,-132.6 166.2,-88.5 291.9,-217.6 376.8,-387.3 56.6,-162.8 77.8,-329.1 63.7,-498.9 -14.2,-169.9 -74.3,-322 -180.4,-456.4 -56.7,-84.8 -129.2,-150.3 -217.6,-196.3 -88.5,-46.1 -180.4,-74.4 -276,-84.9 -95.5,-10.6 -192.7,-3.5 -291.8,21.3 -99,24.8 -184,72.5 -254.8,143.2 0,-141.5 70.8,-219.3 212.3,-233.4 134.4,-42.6 267,-49.7 398,-21.4 130.9,28.3 249.4,83.1 355.6,164.6 106.1,81.4 194.5,182.2 265.3,302.4 70.7,120.3 106.1,251.3 106.1,392.8 21.1,191 -12.5,362.5 -100.9,514.7 -88.5,152 -205.2,279.4 -350.1,382 -145.1,102.5 -307.8,169.9 -488.3,201.7 -180.4,31.9 -355.5,23.1 -525.2,-26.5 z m -1018.92,275.9 c 1075.42,0 2142.02,1.7 3199.72,5.3 1057.8,3.5 2124.4,8.8 3199.9,15.9 49.5,-1096.7 77.7,-2189.9 84.9,-3279.4 7,-1089.7 14.2,-2182.9 21.3,-3279.47 -106.2,-42.42 -219.4,-65.47 -339.7,-69.03 -120.2,-3.57 -242.2,-3.57 -366.1,0 -123.8,3.56 -247.6,8.83 -371.4,15.91 -123.9,7.13 -242.5,7.13 -355.6,0 -849.1,-14.22 -1691.1,-23.05 -2525.9,-26.45 -835,-3.56 -1677,8.84 -2525.89,37.15 6.97,1103.69 1.7,2200.29 -15.97,3289.99 -17.61,1089.6 -19.48,2186.4 -5.26,3290.1 z M 16179.7,9363.28 c 14.1,1139.02 8.9,2276.52 -15.9,3412.12 -24.8,1135.6 -47.8,2276.5 -68.9,3422.8 -983.6,0 -1959.9,-9 -2929.3,-26.6 -969.3,-17.7 -1945.9,-15.9 -2929.2,5.2 -148.6,-14.2 -295.45,-30 -440.47,-47.6 -145.09,-17.7 -291.82,-16 -440.47,5.2 -14.21,-1110.8 -10.64,-2214.7 10.54,-3311.3 21.23,-1096.6 28.37,-2200.3 21.4,-3311.23 56.46,-77.81 127.25,-130.92 212.19,-159.24 84.83,-28.37 175.1,-44.28 270.63,-47.68 95.48,-3.57 192.88,-1.87 291.88,5.27 99.1,7.08 191.1,10.64 275.9,10.64 884.4,-35.45 1765.2,-42.53 2642.6,-21.35 877.4,21.24 1758.3,21.24 2642.7,0.17 155.7,-7.13 307.8,14.1 456.4,63.6 z m 53.1,6909.12 c -14.2,-1181.7 -5.4,-2354.4 26.5,-3518.2 31.9,-1163.9 40.7,-2336.7 26.6,-3518.28 -1132.2,-35.45 -2259,-47.85 -3380.4,-37.15 -1121.3,10.53 -2248.1,15.91 -3380.21,15.91 -84.94,14.1 -150.46,47.69 -196.44,100.8 -45.93,53.07 -76,116.72 -90.1,191.01 -14.21,74.3 -17.78,152.05 -10.65,233.43 7.14,81.43 17.67,153.86 31.89,217.68 28.2,1061.3 26.44,2117.2 -5.44,3167.9 -31.88,1050.9 -51.25,2106.9 -58.21,3168.2 1181.46,-7.1 2354.26,-8.9 3518.16,-5.4 1163.8,3.5 2336.5,-1.7 3518.3,-15.9" /></g></g></g></svg>
