<?xml version="1.0" encoding="UTF-8" standalone="no"?>
<svg
   xmlns:dc="http://purl.org/dc/elements/1.1/"
   xmlns:cc="http://creativecommons.org/ns#"
   xmlns:rdf="http://www.w3.org/1999/02/22-rdf-syntax-ns#"
   xmlns:svg="http://www.w3.org/2000/svg"
   xmlns="http://www.w3.org/2000/svg"
   xmlns:sodipodi="http://sodipodi.sourceforge.net/DTD/sodipodi-0.dtd"
   xmlns:inkscape="http://www.inkscape.org/namespaces/inkscape"
   viewBox="0 0 6001.3335 6001.3335"
   height="6001.3335"
   width="6001.3335"
   xml:space="preserve"
   id="svg2"
   version="1.1"
   sodipodi:docname="filled2.svg"
   inkscape:version="1.0.1 (c497b03c, 2020-09-10)"><sodipodi:namedview
     pagecolor="#ffffff"
     bordercolor="#666666"
     borderopacity="1"
     objecttolerance="10"
     gridtolerance="10"
     guidetolerance="10"
     inkscape:pageopacity="0"
     inkscape:pageshadow="2"
     inkscape:window-width="1202"
     inkscape:window-height="797"
     id="namedview23"
     showgrid="false"
     inkscape:zoom="0.078195341"
     inkscape:cx="2594.2881"
     inkscape:cy="3308.6288"
     inkscape:window-x="197"
     inkscape:window-y="23"
     inkscape:window-maximized="0"
     inkscape:current-layer="g22"
     inkscape:object-paths="false"
     inkscape:snap-intersection-paths="false"
     inkscape:document-rotation="0" /><metadata
     id="metadata8"><rdf:RDF><cc:Work
         rdf:about=""><dc:format>image/svg+xml</dc:format><dc:type
           rdf:resource="http://purl.org/dc/dcmitype/StillImage" /><dc:title></dc:title></cc:Work></rdf:RDF></metadata><defs
     id="defs6" /><g
     transform="matrix(1.3333333,0,0,-1.3333333,0,6001.3333)"
     id="g10"><g
       transform="scale(0.1)"
       id="g12"><g
         transform="scale(2.76104)"
         id="g18"><path
           id="path20"
           style="fill:none;stroke:#231f20;stroke-width:3.62181997;stroke-linecap:butt;stroke-linejoin:miter;stroke-miterlimit:10;stroke-dasharray:none;stroke-opacity:1"
           d="M 16300,1.81091 H 1.81091 V 16300 H 16300 Z" /></g><g
         transform="matrix(6.3436125,0,0,6.3617166,-58308.172,-58749.141)"
         id="g22"
         style="fill:#800000"><path
           id="path24"
           style="fill:#782121;fill-opacity:1;fill-rule:nonzero;stroke:none"
           d="m 15829.5,11443.5 c -7.1,21.1 -12.5,40.6 -15.9,58.2 -3.6,17.7 -5.3,37.2 -5.3,58.5 -14.2,0 -30.1,-1.8 -47.8,-5.4 -17.6,-3.5 -33.6,-5.2 -47.7,-5.2 v -106.1 z m 63.7,-1135.6 c -56.7,28.2 -123.9,42.4 -201.7,42.4 7.1,-35.4 14.1,-65.5 21.2,-90.2 7.1,-24.8 14.2,-51.4 21.3,-79.6 63.6,28.2 116.8,70.7 159.2,127.4 z m -159.2,2186.2 c -127.4,-77.8 -113.3,-123.8 42.5,-137.9 -14.3,35.3 -28.4,81.3 -42.5,137.9 z m 21.2,753.6 c 28.2,-7.1 56.5,-12.5 84.9,-15.9 28.3,-3.6 60.2,-8.9 95.5,-16 -14.2,56.6 -35.5,92 -63.7,106.2 -28.3,14.1 -60.2,14.1 -95.4,0 -35.5,-14.2 -69.1,-37.2 -100.9,-69 -31.9,-31.9 -58.4,-61.9 -79.6,-90.3 28.3,14.3 54.9,28.4 79.7,42.6 24.8,14.1 51.2,28.2 79.5,42.4 z m -74.3,2642.6 c -99,-7.1 -161,-37.2 -185.7,-90.2 -24.8,-53.1 -26.6,-113.2 -5.4,-180.4 21.2,-67.2 58.3,-134.5 111.5,-201.7 53,-67.2 104.4,-118.6 153.9,-153.9 -28.3,49.6 -56.6,100.8 -84.9,153.9 -28.4,53.1 -49.6,106.2 -63.7,159.3 -14.2,52.9 -15.9,106 -5.2,159.1 10.5,53 37.1,104.4 79.5,153.9 z m -233.4,-3587.2 c 49.4,-7.1 106.1,7 169.8,42.4 -14.2,14.1 -28.4,28.2 -42.5,42.5 -14.3,14.2 -28.4,24.7 -42.5,31.8 -35.4,-35.4 -63.7,-74.3 -84.8,-116.7 z m -10.7,2303.1 c 134.4,-42.6 237.1,-131 307.8,-265.3 7.1,42.4 3.5,88.4 -10.6,137.9 -14.2,49.6 -35.4,90.1 -63.7,122 -28.4,31.9 -63.8,51.2 -106.2,58.4 -42.5,7.1 -84.9,-10.6 -127.3,-53 z m -42.4,-3863.2 c -28.3,77.7 -46,155.6 -53.1,233.5 -7.1,77.7 14.1,152 63.6,222.9 14.1,-77.9 19.4,-153.9 16,-228.2 -3.6,-74.3 -12.4,-150.5 -26.5,-228.2 z m 254.6,1411.5 c -70.7,-14.2 -136.1,-42.6 -196.2,-85 -60.2,-42.4 -129.3,-67.1 -207,-74.2 70.7,-99 161,-162.8 270.6,-191.1 109.6,-28.4 221,-42.4 334.4,-42.4 0,77.8 -9,159.2 -26.7,244.1 -17.6,84.9 -76,134.4 -175.1,148.6 z m 0,1729.9 c -49.5,91.9 -125.6,138.1 -228.1,138.1 -102.6,0 -189.3,-28.3 -260.1,-85 -7.1,-28.3 -10.5,-74.3 -10.5,-138 49.5,42.5 107.9,79.5 175.1,111.4 67.2,31.9 125.5,12.4 175.1,-58.2 77.8,-120.5 85,-244.3 21.1,-371.6 -63.7,-127.3 -123.8,-247.6 -180.3,-360.8 99.1,99.1 183.9,215.8 254.7,350.2 70.7,134.4 88.4,272.4 53,413.9 z m -466.8,-4330.11 c 7,28.2 17.5,63.65 31.7,106.23 -14.2,6.97 -30.2,10.54 -47.8,10.54 -17.7,0 -33.6,0 -47.7,0 -14.2,-42.42 -21.2,-70.79 -21.2,-84.83 14.1,-7.14 42.4,-17.84 85,-31.94 z m 339.4,849.11 c 35.4,77.7 67.3,159.1 95.6,244 28.3,84.8 39,173.3 31.8,265.4 28.3,-21.3 54.9,-42.5 79.6,-63.7 24.8,-21.2 54.8,-42.5 90.3,-63.6 0,56.5 -7.2,120.1 -21.3,191 -14.2,70.7 -35.4,136.2 -63.7,196.2 -28.3,60.1 -67.2,108 -116.7,143.4 -49.6,35.3 -109.6,42.4 -180.4,21.2 -14.2,120.3 -37.1,237 -69,350.3 -31.9,113.2 -93.7,212.3 -185.6,297.1 35.3,-120.3 74.1,-238.9 116.5,-355.6 42.5,-116.7 46,-235.3 10.7,-355.4 l -159.1,-31.9 c -49.5,-99.1 -72.6,-205.2 -69.1,-318.4 3.6,-113.3 37.2,-219.4 101,-318.4 14,35.3 26.4,68.8 37,100.7 10.5,31.9 22.9,65.5 37.1,100.9 28.3,-77.8 56.7,-157.4 85,-238.8 28.2,-81.4 88.4,-136.2 180.3,-164.4 z m -191,4457.5 c 77.9,92 106.2,187.4 85,286.5 -21.3,99.1 -70.9,187.5 -148.6,265.3 -56.7,-35.4 -113.2,-79.7 -169.8,-132.6 -56.7,-53.1 -77.9,-118.6 -63.7,-196.3 49.6,21 95.6,49.4 138,84.8 -35.5,-77.9 -37.3,-145 -5.4,-201.6 31.9,-56.7 86.7,-92 164.5,-106.1 z M 14842.5,12335 c 56.6,-28.5 114.9,-48 175.1,-58.5 60.1,-10.5 118.4,-8.8 175.1,5.4 v 148.6 c -56.7,-35.4 -115,-60.2 -175.1,-74.3 -60.2,-14.2 -118.5,-21.2 -175.1,-21.2 z m 169.9,2939.8 c 14.1,14.1 26.4,31.8 36.9,53 10.6,21.2 23.2,42.4 37.4,63.8 -63.8,28.1 -124,67.1 -180.5,116.7 -56.7,-42.4 -84.8,-95.6 -84.8,-159.2 0,-63.8 24.5,-120.2 74.1,-169.8 l 31.9,191 c 14.1,-14.2 28.2,-30.2 42.4,-47.8 14.1,-17.6 28.3,-33.6 42.6,-47.7 z m -223,-3778.4 c 35.4,-56.6 58.4,-115 68.9,-175.1 10.6,-60.2 8.9,-122.1 -5.2,-185.7 84.8,42.4 152.1,107.9 201.7,196.4 49.5,88.4 77.7,182.1 84.8,281.2 7.1,99.1 -5.3,194.6 -37.1,286.5 -31.9,92 -83.2,169.8 -153.9,233.6 35.3,-70.9 40.7,-130.9 15.9,-180.5 -24.7,-49.5 -54.9,-97.2 -90.2,-143.2 -35.3,-46.1 -67.2,-93.8 -95.5,-143.3 -28.3,-49.6 -24.8,-106.1 10.6,-169.9 z m 307.8,2982.4 c -28.3,49.6 -72.6,83.1 -132.7,100.8 -60.2,17.7 -118.6,21.2 -175.2,10.7 -56.6,-10.7 -100.8,-35.4 -132.7,-74.3 -31.9,-39 -30,-90.3 5.5,-153.9 42.4,-56.6 91.8,-86.8 148.4,-90.2 56.7,-3.6 115,-1.9 175.3,5.3 60,7 120.2,8.7 180.3,5.2 60,-3.5 115,-33.6 164.5,-90.1 35.4,56.5 54.8,123.7 58.4,201.6 3.6,77.8 -8.8,146.9 -37.1,206.9 -28.4,60.1 -70.8,104.4 -127.5,132.7 -56.6,28.3 -127.2,21.2 -212,-21.2 49.5,-85 77.7,-162.9 84.8,-233.5 z m -360.8,-2578.9 c 35.2,56.5 37.1,98.9 5.2,127.2 -31.9,28.3 -76,28.3 -132.7,0 28.4,-42.4 70.8,-84.8 127.5,-127.2 z m -339.7,403.2 c 106.2,14.1 208.7,3.4 307.8,-31.9 99,-35.3 198.1,-67.2 297.2,-95.5 -85,70.7 -180.5,118.6 -286.6,143.3 -106.2,24.8 -212.2,33.7 -318.4,26.5 z m 1475.2,488.2 c 0,113.2 -56.6,180.4 -169.7,201.6 0,14.2 6.9,42.5 21.1,85 -63.7,21.2 -115,24.8 -153.8,10.5 -39,-14.2 -74.3,-37.2 -106.2,-69 -31.9,-31.9 -61.9,-67.2 -90.3,-106 -28.3,-39.1 -56.6,-72.6 -84.8,-100.8 -77.9,35.2 -116.7,81.2 -116.7,137.9 0,56.6 10.5,120.3 31.8,191 21.1,70.7 38.8,141.5 53,212.3 14.3,70.7 -3.4,137.9 -52.9,201.7 h -74.3 c -14.2,-21.4 -26.6,-44.3 -37.2,-69.1 -10.7,-24.8 -23,-47.7 -37.1,-68.9 -14.3,77.7 -40.7,153.9 -79.6,228.2 -39,74.3 -107.9,100.8 -207,79.5 70.7,-56.6 114.9,-118.5 132.6,-185.7 17.6,-67.2 24.7,-137.9 21.3,-212.2 -3.6,-74.3 -15.9,-146.9 -37.1,-217.7 -21.4,-70.7 -39.1,-141.5 -53.1,-212.2 84.8,-63.8 113.1,-118.6 84.8,-164.6 -28.4,-45.9 -79.5,-86.6 -153.9,-122 -74.3,-35.4 -157.4,-65.4 -249.3,-90.2 -92,-24.8 -159.2,-47.6 -201.6,-68.9 134.3,14.1 266.9,37.1 397.8,68.9 131,31.9 256.5,72.6 377,122.1 70.6,-14.2 137.7,-8.8 201.5,16 63.7,24.7 127.3,52.9 191,84.8 63.7,31.9 127.3,56.7 191.1,74.3 63.6,17.7 130.8,8.9 201.6,-26.5 z m -1379.7,275.9 c 92,-99.1 107.8,-196.3 47.7,-291.8 -60.1,-95.6 -139.6,-164.6 -238.7,-207 113.2,0 210.4,31.8 291.8,95.6 81.5,63.6 129.1,152 143.4,265.3 -35.5,35.3 -72.6,67.2 -111.5,95.5 -39,28.2 -83.1,42.4 -132.7,42.4 z m -222.9,-84.8 c -28.3,-56.7 -45.9,-102.7 -52.9,-138 49.5,0 88.4,-3.5 116.7,-10.6 l 31.7,95.5 c -21.2,7.1 -53,24.8 -95.5,53.1 z m 180.5,1581.2 c -70.9,-56.6 -138,-125.5 -201.7,-206.9 -63.8,-81.4 -84.9,-171.5 -63.6,-270.6 77.7,21.2 153.9,40.7 228.2,58.4 74.3,17.6 150.3,40.7 228.1,69 -35.4,106.1 -77.8,198 -127.3,275.8 -42.4,-56.6 -81.5,-102.6 -116.8,-137.8 14.1,35.2 24.6,70.7 31.8,106.1 7.1,35.3 14.2,70.8 21.3,106 z m -371.5,806.7 c 7.1,-28.3 12.4,-56.6 15.9,-85 3.4,-28.3 8.9,-56.6 16,-84.8 56.5,14.1 109.6,31.8 159.1,52.9 49.6,21.3 67.2,67.3 53.1,138.2 -42.4,0 -83.1,-1.9 -122,-5.5 -39,-3.5 -79.7,-8.8 -122.1,-15.8 z m 276,-774.8 c -14.2,7.2 -26.6,14.1 -37.2,21.3 -10.6,7.1 -23,14.1 -37.1,21.2 14.1,14 28.2,28.1 42.4,42.4 14.1,14.2 28.2,28.3 42.4,42.5 -63.8,35.3 -127.3,38.9 -191,10.6 -63.8,-28.3 -120.3,-63.6 -169.8,-106 49.5,-49.6 111.5,-88.6 185.8,-116.9 74.3,-28.3 129.1,0 164.5,84.9 z m -371.5,360.9 c 84.8,35.3 155.6,37.2 212.2,5.2 56.7,-31.9 107.9,-72.4 153.9,-122 46,-49.4 95.5,-97.3 148.6,-143.3 53.1,-46 118.6,-65.4 196.4,-58.3 106.1,-7.1 180.4,40.7 222.8,143.3 42.4,102.5 46,196.3 10.7,281.3 -7.2,-35.5 -8.9,-74.5 -5.3,-116.9 3.4,-42.4 1.7,-81.4 -5.3,-116.7 -35.4,49.6 -51.3,104.3 -47.8,164.6 3.4,60 -5.4,115 -26.5,164.5 -63.7,49.5 -127.4,95.5 -191,137.9 -63.7,42.4 -92.1,109.6 -85,201.7 -99,-49.5 -148.6,-99.1 -148.6,-148.6 0,-49.5 19.4,-99.1 58.4,-148.6 38.9,-49.5 84.8,-100.9 137.9,-153.9 53.1,-53 83.1,-111.4 90.3,-175.1 -35.3,49.5 -88.4,97.2 -159.2,143.2 -70.9,46 -143.3,79.6 -217.6,100.8 -74.3,21.2 -145.1,21.2 -212.2,0 -67.2,-21.2 -111.5,-74.3 -132.7,-159.1 z m 360.8,-1560.1 c -14.2,-85 -61.9,-145.2 -143.3,-180.5 -81.4,-35.4 -157.4,-17.8 -228,53.1 28.2,-49.5 65.3,-83.3 111.3,-100.9 45.9,-17.7 93.8,-23.1 143.3,-16 49.5,7.2 93.7,28.4 132.6,63.8 39,35.3 65.4,81.3 79.7,138 28.3,63.7 33.5,125.6 15.9,185.7 -17.7,60.1 -49.6,113.1 -95.6,159.1 -45.9,46 -99,83.2 -159.1,111.5 -60.2,28.3 -122.1,49.5 -185.7,63.8 84.8,-56.7 164.4,-122.2 238.7,-196.5 74.3,-74.2 104.3,-167.9 90.2,-281.1 z m -382,116.8 c 21.2,21.1 42.4,40.6 63.6,58.3 21.2,17.7 42.4,37 63.8,58.4 -42.4,14 -81.5,12.2 -116.7,-5.5 -35.5,-17.6 -39.1,-54.8 -10.7,-111.2 z M 13813,10785.5 c 28.3,-7.2 53.1,-14.3 74.3,-21.4 21.2,-7.1 45.9,-14.1 74.3,-21.1 v 148.6 c -28.4,-14.2 -54.8,-30.1 -79.6,-47.8 -24.8,-17.6 -47.8,-37.2 -69,-58.3 z m 169.8,4011.7 c -141.5,28.2 -222.9,104.2 -244.1,228.1 -21.3,123.8 -10.6,242.2 31.8,355.6 -56.6,-49.6 -93.7,-116.8 -111.4,-201.6 -17.7,-85 -19.5,-162.9 -5.3,-233.6 14.1,-70.7 47.7,-123.8 100.8,-159.1 53,-35.5 129.1,-31.9 228.2,10.6 z m 1719.4,382.1 c -92,169.7 -215.8,305.9 -371.6,408.5 -155.7,102.5 -323.7,169.9 -504,201.7 -180.5,31.9 -362.7,28.4 -546.6,-10.7 -184.1,-39 -350.3,-115 -498.7,-228.1 -99.1,-63.8 -175.3,-143.3 -228.4,-238.9 -53.1,-95.5 -88.4,-199.8 -106,-313 -17.7,-113.3 -16,-226.5 5.2,-339.6 21.3,-113.3 53.1,-215.8 95.6,-307.7 56.6,-127.5 143.3,-228.3 260,-302.6 116.7,-74.3 240.4,-120.4 371.4,-138 131,-17.7 261.8,-5.3 392.7,37.1 131,42.4 238.9,116.9 323.7,223.1 -14.2,7 -31.9,12.2 -53.1,15.8 -21.2,3.6 -38.9,8.8 -53,15.9 -63.7,-84.8 -143.3,-145 -238.8,-180.3 -95.5,-35.5 -194.6,-49.7 -297.2,-42.6 -102.6,7.1 -199.9,35.5 -291.8,85 -91.9,49.5 -166.3,116.7 -222.9,201.7 -92,91.9 -153.9,203.3 -185.8,334.2 -31.9,131 -37.1,260.1 -15.9,387.5 21.2,127.2 69,244 143.3,350.1 74.3,106.2 171.5,187.5 292,244.2 134.3,63.6 282.8,104.3 445.6,121.9 162.7,17.7 321.9,10.7 477.6,-21.2 155.7,-31.9 297.2,-91.9 424.6,-180.3 127.2,-88.6 226.3,-207 297.2,-355.6 84.9,-169.8 141.4,-352 169.7,-546.6 28.3,-194.6 30.2,-389.2 5.4,-583.7 -24.8,-194.6 -77.9,-380.4 -159.3,-557.2 -81.4,-176.9 -189.3,-336.1 -323.7,-477.5 176.8,120.1 309.5,268.7 398,445.7 88.4,176.8 145.1,366.1 169.8,567.8 24.8,201.5 19.4,404.9 -15.9,610.2 -35.3,205.2 -88.4,396.2 -159.1,573.2 z M 13494.7,9862.07 c -14.3,-7.14 -32,-12.4 -53.2,-15.92 -21.3,-3.56 -38.9,-8.83 -53,-15.8 14.1,-42.58 21.2,-74.46 21.2,-95.53 14.1,0 28.2,1.7 42.4,5.27 14.1,3.4 28.3,5.26 42.6,5.26 z m 10.5,5964.63 c -21.3,7.1 -44.2,10.6 -69,10.6 -24.8,0 -47.8,3.5 -68.9,10.6 7,-21.4 10.5,-44.3 10.5,-69.1 0,-24.7 3.6,-47.8 10.7,-68.8 42.4,35.3 81.3,74.3 116.7,116.7 z m 148.6,-3640.3 c -77.8,14.1 -146.9,-1.9 -206.9,-47.8 -60.2,-46 -115.1,-97.3 -164.6,-153.9 14.1,-7.1 28.2,-10.5 42.4,-10.5 14.3,0 28.4,-3.6 42.6,-10.7 z m -413.9,-1496.5 c 14.1,-7.1 30,-12.5 47.7,-15.9 17.6,-3.6 33.6,-8.8 47.8,-16 -28.3,-42.4 -56.6,-77.8 -84.8,-106 106,-14.2 192.7,14.1 259.9,84.9 67.2,70.7 76.2,159.1 26.6,265.3 -134.5,-49.6 -233.6,-120.3 -297.2,-212.3 z m -74.3,1263 c 42.4,35.4 83.1,81.2 122.1,137.9 38.9,56.6 67.2,113.1 84.9,169.7 17.6,56.7 14.1,106.2 -10.7,148.6 -24.8,42.4 -83.1,70.8 -175.1,85 77.7,-77.8 98.9,-162.8 63.6,-254.7 -35.3,-92 -77.7,-177 -127.2,-254.7 6.9,-7.1 14.1,-12.4 21.2,-16 7.1,-3.5 14.1,-8.8 21.2,-15.8 z m -31.9,3873.8 c -42.4,-99.1 -44.3,-177 -5.3,-233.6 38.9,-56.7 97.3,-93.8 175.1,-111.4 77.9,-17.7 159.3,-17.7 244.2,0 84.8,17.6 152.1,58.3 201.7,122 -56.7,-14.2 -118.6,-26.6 -185.8,-37.1 -67.2,-10.6 -132.7,-10.6 -196.3,0 -63.8,10.5 -116.9,35.3 -159.3,74.3 -42.4,38.9 -67.2,100.8 -74.3,185.8 z m 583.7,-5731 c 49.6,63.6 102.5,116.7 159.2,159.1 56.6,42.4 127.4,63.6 212.4,63.6 0,14.1 6.9,35.3 21.2,63.8 -120.4,56.5 -247.9,95.4 -382.2,116.7 -134.4,21.2 -268.7,24.8 -403.1,10.6 35.3,-14.3 68.7,-28.4 100.6,-42.5 31.9,-14.2 65.5,-28.3 100.9,-42.4 -77.8,-14.2 -153.8,-14.2 -228.1,0 -74.3,14.1 -150.5,21.2 -228.2,21.2 63.6,-120.3 155.6,-210.5 275.8,-270.6 120.3,-60.2 244.2,-86.7 371.5,-79.5 z m -774.7,1390.2 c 0,-70.9 3.6,-123.8 10.6,-159.1 63.7,63.6 109.7,127.2 138,191 -28.3,-7.1 -53.1,-12.5 -74.3,-16.1 -21.2,-3.6 -46,-8.8 -74.3,-15.8 z m 106.2,1517.7 c 0,14.1 1.7,28.2 5.2,42.4 3.6,14.1 5.5,28.2 5.5,42.4 -14.3,7.1 -32.1,12.4 -53.3,16 -21.2,3.5 -38.9,12.4 -53,26.6 -7,-14.2 -12.5,-26.6 -15.9,-37.2 -3.5,-10.7 -8.8,-23 -15.9,-37.1 14.1,-7.2 35.3,-24.9 63.8,-53.1 z m -233.5,0 c 0,-85 10.6,-162.8 31.8,-233.5 35.3,35.3 61.9,70.7 79.5,106.1 17.7,35.3 19.6,77.9 5.5,127.4 z m 0,-445.8 c 92,0 175.1,21.2 249.4,63.6 74.3,42.4 143.2,92.1 207,148.7 -42.6,14.1 -92.1,23 -148.7,26.5 -56.7,3.4 -109.7,-3.5 -159.2,-21.2 -49.5,-17.7 -90.1,-42.4 -122,-74.3 -31.9,-31.9 -40.7,-79.6 -26.5,-143.3 z m 95.5,-1825.5 c -21.3,-63.7 -77.8,-102.6 -169.8,-116.7 56.6,56.5 113.2,95.4 169.8,116.7 z m -159.2,2282 c 28.3,21 54.7,42.2 79.5,63.6 24.8,21.2 51.3,45.9 79.7,74.3 -63.7,28.2 -141.6,28.2 -233.5,0 28.3,-35.4 53,-81.4 74.3,-137.9 z m 74.3,307.7 c -56.7,21.1 -99.1,24.6 -127.4,10.5 -28.4,-14.2 -42.5,-31.9 -42.5,-53 0,-21.3 14.1,-40.8 42.5,-58.4 28.3,-17.7 70.7,-15.9 127.4,5.4 z m -159.2,-3757.01 c 77.7,-7.13 127.3,19.37 148.5,79.57 21.2,60.08 24.8,121.97 10.7,185.79 -35.5,0 -67.4,-1.86 -95.6,-5.43 -28.3,-3.57 -60.2,-8.84 -95.4,-15.97 7,-42.42 12.3,-83.13 15.9,-121.98 3.4,-39.02 8.8,-79.56 15.9,-121.98 z m -95.5,4234.51 c -21.3,-49.4 -23,-90.2 -5.4,-122.1 17.6,-31.8 40.7,-53.1 69.1,-63.6 28.1,-10.6 58.2,-7.1 90.1,10.5 31.8,17.7 54.9,55 69.1,111.6 -78,28.2 -152.3,49.4 -222.9,63.6 z m 95.5,-328.9 c -77.8,28.2 -141.5,-0.1 -191,-85 l 159.2,-31.8 c 7,21.1 12.3,40.7 15.9,58.3 3.4,17.7 8.8,37.1 15.9,58.5 z m -159.2,626.2 c 70.7,28.1 99,70.6 84.9,127.2 -21.4,-7.1 -60.2,-17.6 -116.7,-31.7 6.9,-14.2 12.2,-30.2 15.8,-47.8 3.5,-17.7 8.8,-33.6 16,-47.7 z m 53,-785.5 c -49.5,-21.2 -99,-45.9 -148.6,-74.3 35.4,-7.1 67.2,-14.1 95.6,-21.2 28.3,-7.1 56.6,-14.1 84.9,-21.2 -14.2,56.7 -24.8,95.5 -31.9,116.7 z m -21.2,-148.6 c -85,-14.2 -145,-45.9 -180.3,-95.5 21,-14.2 44.1,-26.6 68.9,-37.1 24.7,-10.6 51.2,-23 79.6,-37.2 7.1,28.3 12.4,56.6 15.9,85 3.5,28.2 8.8,56.5 15.9,84.8 z m -180.3,-1655.6 c -7.2,-99.1 31.7,-176.9 116.7,-233.4 -7.1,49.5 -17.8,93.6 -31.9,132.6 -14.2,38.9 -42.4,72.5 -84.8,100.8 z m 74.3,-902.1 c -120.4,56.6 -173.5,145 -159.3,265.3 35.3,-42.4 63.6,-86.7 84.9,-132.7 21.1,-46 45.9,-90.2 74.4,-132.6 z m -169.8,1591.9 c 56.5,-56.6 109.6,-69 159.1,-37.1 49.5,31.9 60,83.1 31.9,154 -85,-7.1 -148.6,-46.1 -191,-116.9 z m 0,838.5 c 14,28.2 30,53 47.7,74.2 17.6,21.3 33.6,46 47.8,74.5 -56.7,-14.3 -95.7,-24.9 -116.9,-31.9 0,-14.3 3.6,-33.6 10.7,-58.4 7.1,-24.7 10.7,-44.3 10.7,-58.4 z m 870.1,-3215.75 c 42.4,56.52 63.8,121.98 63.8,196.25 0,74.3 -16,143.2 -47.8,207 -31.9,63.7 -76.1,114.9 -132.7,153.9 -56.6,38.8 -123.9,51.2 -201.6,37.1 -63.7,-7.1 -99.1,-42.4 -106.1,-106 -7.2,-63.8 -21.3,-120.3 -42.5,-169.8 -14.2,42.4 -24.8,84.8 -31.8,127.2 -7.2,42.4 -17.7,85 -32,127.4 -77.8,28.2 -148.6,21.2 -212.2,-21.2 -63.7,-42.4 -109.7,-99 -137.9,-169.8 -28.3,-70.8 -35.5,-141.5 -21.2,-212.22 14.1,-70.9 60,-120.45 137.9,-148.65 247.7,84.89 502.4,77.87 764.1,-21.18 z m -933.9,3576.65 c 21.2,28.2 46,70.6 74.3,127.3 h -116.7 c 14.1,-28.4 28.2,-70.8 42.4,-127.3 z m 382,-859.8 c 28.4,-148.5 44.3,-297 47.9,-445.6 3.4,-148.6 5.3,-297.2 5.3,-445.9 0,-148.6 3.4,-295.3 10.5,-440.4 7.1,-145 28.3,-288.3 63.8,-429.8 21.1,198.1 21.1,396.1 0,594.2 -21.4,198.2 -17.9,396.3 10.6,594.5 -7.1,91.9 -3.7,189.2 10.5,291.8 14.1,102.6 24.7,205.2 31.8,307.9 7.1,102.5 0,199.8 -21.2,291.8 -21.2,91.9 -67.2,176.8 -138,254.7 -28.3,-77.9 -49.5,-161.1 -63.6,-249.5 -14.2,-88.5 7,-164.5 63.6,-228.1 14.3,35.3 23.1,72.4 26.7,111.4 3.4,38.9 8.8,76 15.9,111.5 35.3,-49.6 49.6,-100.9 42.4,-153.9 -7.1,-53.1 -17.8,-104.4 -31.9,-153.9 -106.1,14.1 -201.7,38.9 -286.5,74.3 28.2,7 54.8,10.6 79.6,10.6 24.8,0 51.2,3.5 79.7,10.6 -63.8,63.7 -139.8,102.5 -228.2,116.7 -88.5,14.1 -175.2,17.7 -260.1,10.7 77.8,-70.9 159.2,-136.3 244.1,-196.4 84.8,-60.1 183.8,-72.4 297.1,-37.2 z m -382,-10.5 c -120.3,42.4 -196.3,40.6 -228.2,-5.4 -31.9,-45.9 -38.8,-106 -21.2,-180.3 17.6,-74.3 54.7,-148.6 111.3,-222.9 56.7,-74.4 116.7,-122.2 180.5,-143.2 -21.2,42.4 -49.5,88.4 -84.8,137.9 -35.5,49.5 -62.1,100.8 -79.7,153.9 -17.7,52.9 -19.6,100.7 -5.3,143.1 14.2,42.4 56.6,81.5 127.4,116.9 z m -191,-2791.18 c 0,49.38 3.5,84.66 10.7,106.01 -21.4,0 -44.3,0 -69.1,0 -24.8,0 -47.8,3.57 -69.1,10.7 -7,-14.21 -10.5,-30.18 -10.5,-47.85 0,-17.61 -3.5,-33.58 -10.6,-47.68 56.6,-14.21 106.1,-21.18 148.6,-21.18 z m 10.7,6081.18 c -77.9,14.3 -129.2,1.9 -154,-37.2 -24.7,-39 8.9,-65.4 100.8,-79.5 14.1,14.1 23,31.7 26.5,53.1 3.6,21.2 12.4,42.4 26.7,63.6 z m 275.8,-10.5 c 21.2,-99.1 14.1,-177 -21.2,-233.6 -35.4,-56.7 -85,-93.8 -148.6,-111.5 -63.8,-17.7 -132.7,-15.9 -206.9,5.5 -74.4,21.1 -143.4,56.6 -207,106.1 63.6,-78 143.1,-148.7 238.8,-212.3 95.5,-63.8 196.3,-67.2 302.5,-10.6 56.5,56.5 93.7,130.9 111.3,222.8 17.6,91.9 -5.2,169.8 -68.9,233.6 z m -329,-5189.9 c -7.1,14.1 -10.6,26.5 -10.6,37.2 0,10.5 -3.6,22.9 -10.5,37.1 l 127.2,-31.9 c -28.4,106.2 -86.7,180.5 -175.1,222.9 -88.5,42.5 -182.2,70.7 -281.3,84.9 14.3,-56.7 24.8,-111.5 31.9,-164.4 7.2,-53.1 14.1,-107.9 21.3,-164.5 56.6,-7.2 107.8,-12.4 153.8,-16 46,-3.6 93.8,-5.3 143.3,-5.3 z m 169.9,1337.3 c -56.7,99 -127.6,175 -212.4,228.1 -84.9,53.1 -173.3,100.9 -265.2,143.3 -14.2,-28.3 -31.9,-53.1 -53.1,-74.3 99.1,-28.3 187.5,-76.2 265.3,-143.3 77.8,-67.2 166.3,-118.4 265.4,-153.8 z m 562.5,-1263 c -92.1,7 -148.7,38.8 -170,95.4 -21.1,56.7 -35.3,120.3 -42.4,191.2 -7.1,70.7 -19.5,137.9 -37.1,201.7 -17.6,63.6 -65.5,113.1 -143.2,148.6 -14.3,-21.4 -30.2,-44.3 -47.8,-69.1 -17.7,-24.7 -37.2,-51.4 -58.4,-79.5 -85,77.7 -187.6,116.7 -307.9,116.7 -120.2,0 -222.7,-42.6 -307.6,-127.4 106,35.3 187.4,37.1 244,5.2 56.6,-31.8 104.3,-79.5 143.3,-143.1 38.9,-63.8 70.7,-134.6 95.5,-212.4 24.8,-77.9 58.4,-145.1 101,-201.6 84.8,-63.7 185.6,-107.8 302.3,-132.7 116.7,-24.7 230,-26.6 339.6,-5.3 109.6,21.1 208.7,65.4 297.3,132.6 88.3,67.2 150.2,161 185.7,281.4 21.2,106 74.3,192.7 159.1,260 84.9,67.1 180.4,65.4 286.6,-5.3 -7.2,70.7 -35.3,120.3 -84.9,148.6 -49.5,28.2 -104.4,40.5 -164.5,37.1 -60.2,-3.5 -120.4,-21.2 -180.5,-53.1 -60.1,-31.9 -104.4,-69 -132.5,-111.4 -21.4,28.2 -40.9,54.8 -58.5,79.5 -17.7,24.8 -37.2,47.7 -58.2,69.1 -99.1,-21.4 -154.1,-63.8 -164.6,-127.4 -10.7,-63.7 -14.2,-131 -10.7,-201.7 3.6,-70.7 -1.7,-136.2 -15.9,-196.3 -14.3,-60.2 -70.7,-93.8 -169.7,-100.8 z m -1241.8,265.3 c -77.9,0 -125.7,-21.3 -143.3,-63.7 -17.7,-42.4 19.5,-70.8 111.4,-84.9 14.1,70.8 24.8,120.3 31.9,148.6 z m -180.5,74.4 c 49.5,-14.3 102.6,-14.3 159.3,0 -7.1,14 -10.7,28.1 -10.7,42.4 0,14.1 0,28.1 0,42.4 -14.2,7.1 -28.3,12.4 -42.4,15.9 -14.3,3.4 -28.3,8.9 -42.4,16 -14.3,-21.3 -35.5,-60.2 -63.8,-116.7 z m 159.3,4011.8 c -21.4,-21.4 -42.6,-42.6 -63.8,-63.8 -21.2,-21.4 -42.4,-46.1 -63.6,-74.3 91.9,-56.6 194.4,-77.9 307.7,-63.7 113.2,14.2 176.8,88.4 191,223 -120.2,98.9 -208.6,222.7 -265.3,371.4 -176.9,-35.5 -290.1,-134.6 -339.4,-297.1 h 95.5 c -14.3,-35.5 -28.5,-67.3 -42.6,-95.7 -14.2,-28.3 -28.3,-60.2 -42.4,-95.5 z m -21.2,-4903.3 c 77.7,-77.9 157.3,-115 238.7,-111.5 81.4,3.4 162.7,26.5 244.1,68.9 81.4,42.4 157.4,97.4 228.2,164.6 70.8,67.1 137.9,129.1 201.7,185.7 -85,14.1 -170,15.8 -254.8,5.3 -84.8,-10.7 -169.8,-19.5 -254.6,-26.5 42.4,28.2 88.3,49.4 137.9,63.6 49.5,14.1 95.5,31.8 138.1,53.1 -177,42.4 -350.3,37 -520.2,-15.9 -169.8,-53.1 -328.9,-122.1 -477.5,-207 56.5,-42.4 116.6,-63.6 180.3,-63.6 63.8,0 127.4,7 191.2,21.2 -14.3,-21.3 -23.2,-44.3 -26.7,-69.1 -3.5,-24.7 -12.3,-47.8 -26.4,-68.8 z m -350.3,445.6 c 21.2,-7.1 44.3,-14.1 69,-21.2 24.8,-7.1 51.3,-14 79.6,-21.2 7.1,14.1 10.7,31.7 10.7,53.2 0,21.1 3.4,38.8 10.5,53 -84.9,14.1 -141.5,-7.1 -169.8,-63.8 z m 180.5,2621.6 c -35.5,106 -37.3,196.3 -5.4,270.6 31.9,74.3 79.5,139.6 143.3,196.3 63.6,56.6 134.4,111.4 212.3,164.5 77.7,53 145,107.9 201.6,164.6 -56.6,-42.6 -125.6,-78 -206.9,-106.2 -81.4,-28.3 -159.2,-60.2 -233.5,-95.6 -74.3,-35.4 -139.7,-77.8 -196.4,-127.3 -56.7,-49.6 -91.9,-116.7 -106,-201.6 -14.3,-70.9 -1.9,-134.5 37.1,-191.1 38.9,-56.7 86.5,-93.9 143.2,-111.5 56.6,-17.7 107.9,-14.1 153.9,10.7 46,24.7 69,83.1 69,175.1 -63.8,-77.9 -134.5,-127.5 -212.2,-148.5 z m -222.9,1591.9 c 42.4,-14.2 84.8,-21.1 127.2,-21.1 42.4,0 85,-3.6 127.4,-10.7 l -31.7,95.5 z m 84.9,-2239.4 c -14.2,70.7 -28.4,123.8 -42.5,159.2 14.1,21.3 28.2,44.2 42.4,68.9 14.2,24.8 28.3,47.7 42.5,69.1 -56.6,7.1 -102.7,-3.6 -138,-31.9 -35.3,-28.3 -56.5,-60.2 -63.6,-95.5 -7.2,-35.3 1.7,-70.8 26.4,-106.1 24.8,-35.4 69.1,-56.6 132.8,-63.7 z m -148.6,530.6 c -7.1,-14.2 -12.5,-26.6 -15.9,-37.2 -3.6,-10.5 -8.8,-22.8 -16,-36.9 l 159.2,-31.9 c 7.1,14.1 14.1,31.7 21.2,52.9 7.1,21.2 14.2,38.9 21.4,53.1 z m -74.3,1761.8 c 70.6,14.3 120.2,46 148.6,95.5 -14.2,0 -32,1.7 -53.2,5.3 -21.2,3.6 -42.4,5.4 -63.6,5.4 -14.3,-42.5 -24.8,-77.8 -31.8,-106.2 z m 350.2,-137.9 c -162.8,14.1 -304.4,-3.6 -424.5,-53.1 134.4,-56.7 290,-67.2 466.9,-31.7 z m -435.2,-1146.2 c 35.4,0 65.5,-1.9 90.3,-5.4 24.7,-3.5 51.2,-5.2 79.6,-5.2 14.1,56.6 8.8,99 -16,127.3 -24.8,28.2 -65.5,35.4 -121.9,21.3 -14.3,-56.7 -24.8,-102.7 -32,-138 z m 116.8,-4011.81 c 14.2,42.47 28.3,74.18 42.5,95.53 h -191 c 28.2,-14.21 53,-30.18 74.2,-47.79 21.2,-17.67 45.9,-33.64 74.3,-47.74 z m 541.3,4882.11 c -63.8,35.3 -148.6,63.5 -254.8,84.8 -106.2,21.3 -206.9,26.5 -302.5,16 -95.5,-10.7 -176.9,-40.7 -244.1,-90.3 -67.2,-49.5 -93.7,-130.9 -79.4,-244.1 84.8,-42.4 174.9,-79.6 270.5,-111.4 95.4,-31.9 192.8,-37.2 291.9,-15.8 v 191 c 28.2,-63.8 72.4,-107.9 132.7,-132.7 60,-24.8 118.4,-31.8 175,-21.3 56.7,10.5 109.8,37.1 159.3,79.6 49.6,42.4 81.3,95.5 95.5,159.3 49.5,63.5 67.2,125.5 53.1,185.7 -14.2,60.1 -44.2,109.6 -90.2,148.6 -46.2,38.8 -102.7,63.6 -169.8,74.3 -67.3,10.5 -132.7,1.7 -196.3,-26.6 v -127.3 c 28.1,-28.5 56.5,-54.9 84.8,-79.7 28.2,-24.8 53,-54.8 74.3,-90.1 z m -689.8,-2313.6 c -21.3,6.9 -40.8,12.2 -58.5,15.8 -17.7,3.5 -37.1,8.8 -58.4,15.9 84.9,21.2 173.4,38.9 265.4,53.1 91.9,14.1 173.3,49.5 244.1,106.2 -120.3,28.2 -235.3,24.6 -344.9,-10.7 -109.8,-35.4 -214.1,-81.4 -313,-137.9 v -74.3 c 28.2,6.9 53,14.1 74.1,21.2 21.3,7.1 42.4,14.1 63.8,21.2 -49.5,-49.6 -93.8,-107.9 -132.6,-175.1 -39,-67.2 -63.8,-137.9 -74.4,-212.2 -10.6,-74.3 -3.5,-145.2 21.3,-212.4 24.7,-67.2 72.4,-125.6 143.3,-175.1 98.9,28.2 144.9,76 137.8,143.2 -7.1,67.2 -22.9,138.1 -47.7,212.4 -24.8,74.3 -40.7,148.6 -47.8,222.9 -7.2,74.3 35.4,136.2 127.5,185.8 z m -106.2,2939.8 c -106.1,28.1 -178.6,26.4 -217.6,-5.4 -39,-31.9 -61.9,-81.5 -69.1,-148.6 -7.1,-67.3 -3.5,-139.8 10.7,-217.5 14.2,-77.9 21.4,-145.1 21.4,-201.8 77.7,0 157.2,10.6 238.7,31.9 81.4,21.3 129.1,77.9 143.3,169.9 -28.4,14.1 -56.7,24.6 -85,31.7 -28.3,7.1 -60.1,17.6 -95.5,31.9 106.2,-7.1 166.3,23.1 180.5,90.2 14.1,67.2 -24.8,122.1 -116.7,164.6 21,-7.2 44.1,-12.5 68.9,-15.9 24.7,-3.6 51.2,-12.4 79.6,-26.5 28.3,14.1 53.1,30 74.3,47.6 21.2,17.7 42.4,33.6 63.7,47.9 21.1,-7.1 53,-24.9 95.6,-53.1 63.6,56.5 111.2,132.5 143.2,228 31.9,95.5 30,182.2 -5.4,260.2 -42.4,56.6 -86.6,83 -132.6,79.6 -46.1,-3.6 -92.1,-16 -138,-37.1 -46,-21.4 -95.6,-46.2 -148.5,-74.3 -53.1,-28.4 -104.3,-39.1 -153.9,-31.9 -42.6,-63.8 -58.5,-127.4 -47.8,-191.1 10.5,-63.8 40.7,-123.8 90.2,-180.3 z m -350.2,159.1 c 70.7,-7.1 141.4,-7.1 212.3,0 -49.6,92 -123.9,127.3 -222.9,106.2 0,-14.2 1.7,-31.9 5.3,-53.1 3.5,-21.4 5.3,-39 5.3,-53.1 z m 127.3,594.3 c -35.4,49.5 -74.3,70.7 -116.7,63.6 -42.4,-7.1 -81.4,-28.3 -116.7,-63.6 z m -371.3,-1284.1 c 113.1,7 160.8,31.7 143.1,74.2 -17.6,42.4 -76,49.5 -175.1,21.4 z m -116.91,-4033 c 92.01,14.1 175.21,53 249.51,116.7 74.3,63.7 104.4,145.1 90.1,244.2 28.3,0 53.1,-1.9 74.3,-5.5 21.2,-3.5 46,-5.2 74.3,-5.2 7.1,63.6 23.1,136 47.8,217.5 24.8,81.4 8.9,146.9 -47.8,196.4 -91.9,21.2 -153.9,63.6 -185.8,127.4 -31.8,63.6 -44.2,134.4 -37.1,212.2 7.1,77.8 28.3,155.6 63.8,233.5 35.3,77.9 74.3,145 116.7,201.7 -106.2,-77.9 -189.3,-180.5 -249.4,-307.8 -60.2,-127.4 -79.7,-258.3 -58.4,-392.7 -63.7,-7.1 -118.53,-33.6 -164.52,-79.6 -46.09,-46.1 -76.16,-97.3 -90.21,-154 -14.27,-56.6 -7.13,-109.6 21.18,-159.1 28.32,-49.6 85,-77.9 169.85,-84.8 -14.2,-56.7 -28.33,-116.9 -42.43,-180.5 -14.22,-63.8 -24.81,-123.9 -31.88,-180.4 z m 180.51,5338.4 c -56.7,21.1 -116.8,31.8 -180.51,31.8 -63.77,0 -127.42,-7.1 -191.01,-21.2 84.83,-14.2 130.81,-42.6 137.89,-85 7.13,-42.4 5.26,-88.4 -5.27,-137.9 -10.53,-49.6 -15.8,-97.4 -15.8,-143.3 0,-46 31.77,-79.6 95.53,-100.8 49.57,70.7 88.37,143.3 116.67,217.6 28.2,74.3 42.5,153.9 42.5,238.8 z m 5540,-6060.06 c 21.2,0 49.5,0 84.9,0 35.4,0 67.2,3.39 95.6,10.53 28.2,7.08 49.3,17.67 63.6,31.88 14.1,14.1 7,38.85 -21.2,74.3 -63.8,28.2 -132.7,49.38 -207,63.65 -74.3,14.05 -145,31.71 -212.2,53.1 -67.2,21.2 -129.1,53.1 -185.8,95.5 -56.6,42.4 -95.5,106 -116.7,191 -403.4,870.3 -789,1740.6 -1156.8,2610.9 -368,870.3 -742.9,1747.5 -1125,2632.1 -21.3,49.5 -47.8,79.5 -79.7,90 -31.9,10.6 -63.6,5.3 -95.5,-15.9 -31.9,-21.2 -58.4,-51.2 -79.5,-90.1 -21.4,-39 -35.5,-76.1 -42.5,-111.5 -170,-438.7 -359.3,-866.8 -567.9,-1284.2 -208.7,-417.5 -394.5,-845.5 -557,-1284.1 -162.9,-438.7 -336.2,-872.1 -520.1,-1300.1 -184,-428.2 -375,-854.4 -573.1,-1278.8 -35.5,-63.8 -79.7,-115.2 -132.7,-154 -53.1,-39.1 -109.7,-70.8 -169.8,-95.6 -60.2,-24.72 -120.42,-53.03 -180.5,-84.92 -60.08,-31.93 -107.88,-76.05 -143.16,-132.56 191.01,-28.32 382.06,-28.32 573.06,0 191,28.2 385.6,28.2 583.8,0 84.8,0 171.5,-14.22 260,-42.53 88.4,-28.32 171.5,-17.67 249.4,31.88 -28.3,56.63 -74.3,95.48 -138.1,116.71 -63.7,21.24 -129.1,42.42 -196.3,63.77 -67.2,21.23 -127.4,49.55 -180.5,84.85 -53,35.3 -79.5,95.5 -79.5,180.5 35.2,219.2 91.9,436.8 169.8,652.6 77.9,215.8 162.8,426.4 254.8,631.6 99.1,42.4 203.4,67 313,74.2 109.6,7.1 219.3,8.8 328.9,5.4 109.6,-3.6 221.1,-7.1 334.4,-10.7 113.2,-3.6 222.9,5.3 329.1,26.6 35.3,35.3 49.4,79.4 42.3,132.5 -7.2,53.2 -10.6,100.9 -10.6,143.4 -99.1,7.1 -199.8,7.1 -302.4,0 -102.7,-7.1 -205.3,-12.4 -307.8,-16 -102.6,-3.5 -203.4,-1.8 -302.4,5.3 -99.1,7.1 -191.1,28.3 -275.9,63.8 162.7,466.8 337.8,933.9 525.3,1400.9 187.4,466.9 415.6,909.2 684.4,1326.7 226.4,-445.9 440.5,-895.1 642.1,-1347.9 201.6,-452.9 391,-912.9 567.9,-1379.7 -176.9,-49.6 -353.9,-70.9 -530.7,-63.8 -176.9,7.1 -353.8,0 -530.6,-21.1 0,-42.5 1.7,-92.1 5.2,-148.7 3.6,-56.6 37.2,-88.4 101,-95.4 162.7,-7.1 325.3,-7.2 488.2,-0.1 162.7,7.1 325.4,14.2 488.1,21.3 56.6,0 99,-24.7 127.4,-74.3 28.2,-49.5 52.9,-95.5 74.3,-137.9 70.7,-205.3 146.7,-405.3 228.2,-599.7 81.4,-194.6 129.1,-401.5 143.3,-620.9 -14.2,-70.8 -44.3,-125.6 -90.3,-164.5 -46.1,-39.05 -97.3,-69.07 -153.9,-90.3 -56.7,-21.18 -118.5,-40.72 -185.7,-58.33 -67.2,-17.67 -125.5,-37.21 -175.1,-58.22 7,-14.27 10.6,-28.48 10.6,-42.58 0,-14.27 0,-28.32 0,-42.42 318.4,7.08 629.7,23.05 934,47.8 304.2,24.8 611.9,19.37 923.3,-15.91 z M 9673.89,12133.3 c 14.1,-35.5 22.93,-69 26.5,-100.9 3.57,-31.9 12.4,-65.5 26.62,-100.8 35.28,7.1 72.43,14.1 111.44,21.2 38.85,7.1 79.57,14.2 121.98,21.4 -14.21,-35.5 -30.18,-69.1 -47.79,-101 -17.67,-31.8 -33.59,-65.4 -47.68,-100.7 14.09,-7.2 30.01,-10.7 47.68,-10.7 17.61,0 33.58,-3.6 47.79,-10.5 63.67,77.7 136.07,150.3 217.47,217.4 81.5,67.2 164.6,129.1 249.6,185.8 -127.4,-21.2 -254.8,-21.2 -382.2,0 -127.4,21.2 -251.24,14.1 -371.41,-21.2 z m 902.21,3629.7 c -177,-70.9 -334.4,-173.5 -472.3,-307.9 -138.1,-134.3 -247.68,-286.5 -329.11,-456.3 -81.43,-169.8 -125.55,-350.2 -132.68,-541.2 -7.08,-191 31.88,-375.1 116.77,-551.8 49.49,-70.9 70.72,-145.2 63.59,-223 -7.14,-77.8 -42.42,-145 -106.07,-201.7 113.2,21.3 196.34,-8.8 249.4,-90.2 53.1,-81.4 97.4,-168.1 132.7,-260 35.3,-92 77.8,-169.9 127.4,-233.5 49.5,-63.8 123.8,-67.2 222.9,-10.5 14.1,-35.5 28.2,-70.9 42.4,-106.2 14.1,-35.5 28.2,-70.8 42.4,-106.1 -77.8,-21.3 -145,-10.6 -201.7,31.8 -56.6,42.4 -107.9,90.2 -153.9,143.3 -45.9,53 -95.5,98.9 -148.6,138 -53.07,38.8 -118.53,44.1 -196.23,15.9 -56.68,-14.2 -81.43,-51.4 -74.29,-111.5 7.07,-60.2 3.51,-111.4 -10.54,-153.8 70.56,7.1 136.08,-7.2 196.28,-42.5 60.08,-35.4 116.68,-74.4 169.78,-116.8 53,-42.5 107.8,-77.9 164.4,-106 56.7,-28.4 120.3,-31.9 191.2,-10.8 63.6,21.3 125.6,26.6 185.6,16 60.1,-10.7 122,-21.4 185.8,-31.9 63.8,-10.6 127.4,-17.6 191.1,-21.2 63.7,-3.6 127.3,5.3 191.1,26.6 -77.9,35.3 -161,60.1 -249.4,74.3 -88.6,14.1 -175.3,28.2 -260.1,42.4 70.6,77.8 97.2,157.3 79.6,238.7 -17.7,81.5 -42.5,164.6 -74.3,249.6 -31.9,84.8 -51.2,166.2 -58.4,244.1 -7.1,77.7 35.3,148.4 127.4,212.3 -77.8,14 -148.6,12.2 -212.4,-5.5 -63.7,-17.6 -130.9,-37.1 -201.5,-58.2 -14.2,-56.6 -26.6,-115.2 -37.2,-175.2 -10.7,-60.1 -23,-118.5 -37.1,-175.1 -42.4,70.7 -88.4,146.7 -138,228.2 -49.5,81.4 -85,164.5 -106.1,249.4 -21.4,84.8 -23.1,166.2 -5.5,244.1 17.7,77.7 72.6,148.5 164.6,212.2 49.5,49.5 92,70.8 127.4,63.6 35.3,-7.1 63.6,-28.3 84.8,-63.6 21.2,-35.3 33.6,-77.7 37.2,-127.2 3.6,-49.6 -1.7,-95.7 -15.8,-138.1 70.6,7.1 116.6,38.9 137.9,95.5 21.2,56.6 22.9,115 5.3,175.1 -17.7,60 -51.2,113.1 -100.8,159.2 -49.5,46 -106.2,62 -169.8,47.9 -99.1,14.1 -173.4,-19.5 -222.9,-100.9 -49.6,-81.5 -102.63,-157.5 -159.15,-228.2 -120.45,198.1 -164.68,408.5 -132.79,631.4 31.88,222.9 122.09,419.3 270.64,589.2 70.8,183.9 187.5,320 350.4,408.5 162.7,88.4 337.7,132.6 525.2,132.6 187.5,0 364.5,-44.2 530.7,-132.6 166.2,-88.5 291.9,-217.6 376.8,-387.3 56.6,-162.8 77.8,-329.1 63.7,-498.9 -14.2,-169.9 -74.3,-322 -180.4,-456.4 -56.7,-84.8 -129.2,-150.3 -217.6,-196.3 -88.5,-46.1 -180.4,-74.4 -276,-84.9 -95.5,-10.6 -192.7,-3.5 -291.8,21.3 -99,24.8 -184,72.5 -254.8,143.2 0,-141.5 70.8,-219.3 212.3,-233.4 134.4,-42.6 267,-49.7 398,-21.4 130.9,28.3 249.4,83.1 355.6,164.6 106.1,81.4 194.5,182.2 265.3,302.4 70.7,120.3 106.1,251.3 106.1,392.8 21.1,191 -12.5,362.5 -100.9,514.7 -88.5,152 -205.2,279.4 -350.1,382 -145.1,102.5 -307.8,169.9 -488.3,201.7 -180.4,31.9 -355.5,23.1 -525.2,-26.5 z m -1018.92,275.9 c 1075.42,0 2142.02,1.7 3199.72,5.3 1057.8,3.5 2124.4,8.8 3199.9,15.9 49.5,-1096.7 77.7,-2189.9 84.9,-3279.4 7,-1089.7 14.2,-2182.9 21.3,-3279.47 -106.2,-42.42 -219.4,-65.47 -339.7,-69.03 -120.2,-3.57 -242.2,-3.57 -366.1,0 -123.8,3.56 -247.6,8.83 -371.4,15.91 -123.9,7.13 -242.5,7.13 -355.6,0 -849.1,-14.22 -1691.1,-23.05 -2525.9,-26.45 -835,-3.56 -1677,8.84 -2525.89,37.15 6.97,1103.69 1.7,2200.29 -15.97,3289.99 -17.61,1089.6 -19.48,2186.4 -5.26,3290.1 z M 16179.7,9363.28 c 14.1,1139.02 8.9,2276.52 -15.9,3412.12 -24.8,1135.6 -47.8,2276.5 -68.9,3422.8 -983.6,0 -1959.9,-9 -2929.3,-26.6 -969.3,-17.7 -1945.9,-15.9 -2929.2,5.2 -148.6,-14.2 -295.45,-30 -440.47,-47.6 -145.09,-17.7 -291.82,-16 -440.47,5.2 -14.21,-1110.8 -10.64,-2214.7 10.54,-3311.3 21.23,-1096.6 28.37,-2200.3 21.4,-3311.23 56.46,-77.81 127.25,-130.92 212.19,-159.24 84.83,-28.37 175.1,-44.28 270.63,-47.68 95.48,-3.57 192.88,-1.87 291.88,5.27 99.1,7.08 191.1,10.64 275.9,10.64 884.4,-35.45 1765.2,-42.53 2642.6,-21.35 877.4,21.24 1758.3,21.24 2642.7,0.17 155.7,-7.13 307.8,14.1 456.4,63.6 z m 53.1,6909.12 c -14.2,-1181.7 -5.4,-2354.4 26.5,-3518.2 31.9,-1163.9 40.7,-2336.7 26.6,-3518.28 -1132.2,-35.45 -2259,-47.85 -3380.4,-37.15 -1121.3,10.53 -2248.1,15.91 -3380.21,15.91 -84.94,14.1 -150.46,47.69 -196.44,100.8 -45.93,53.07 -76,116.72 -90.1,191.01 -14.21,74.3 -17.78,152.05 -10.65,233.43 7.14,81.43 17.67,153.86 31.89,217.68 28.2,1061.3 26.44,2117.2 -5.44,3167.9 -31.88,1050.9 -51.25,2106.9 -58.21,3168.2 1181.46,-7.1 2354.26,-8.9 3518.16,-5.4 1163.8,3.5 2336.5,-1.7 3518.3,-15.9" /><path
           style="fill:#ffffff;stroke-width:12.7885"
           d="m 1641.5459,5545.7932 c -148.5151,-41.1485 -504.8207,-56.5712 -677.78973,-29.3381 -120.39652,18.956 -438.2158,19.0784 -457.11803,0.1761 -25.95823,-25.9582 36.41543,-72.7675 214.04611,-160.6343 237.59052,-117.5265 243.41423,-124.8614 433.77605,-546.3311 319.0981,-706.498 546.2759,-1252.4653 781.5622,-1878.2973 133.4978,-355.0872 259.204,-646.2702 449.9532,-1042.2616 189.5842,-393.5731 344.4516,-739.9867 437.3663,-978.31917 101.0645,-259.23663 105.1472,-267.71539 145.0972,-301.33106 46.1844,-38.86168 79.0987,-39.46788 116.4224,-2.14423 26.7074,26.70749 296.2942,648.63516 972.711,2244.01086 293.8045,692.9583 501.1593,1167.0963 790.8191,1808.2891 115.5309,255.7397 217.4951,483.882 226.5869,506.9828 22.9862,58.4031 117.3208,137.5383 201.5009,169.034 38.8895,14.5505 133.5813,41.1985 210.4261,59.2179 139.0837,32.6137 216.5666,73.4087 197.6281,104.052 -18.5457,30.0075 -141.8313,42.9933 -276.7391,29.1491 -183.2607,-18.8061 -566.3701,-16.6752 -899.8161,5.0048 -155.7372,10.1257 -353.655,21.3515 -439.8174,24.9464 l -156.659,6.5359 v -30.5858 c 0,-38.709 -0.5269,-38.4219 156.3885,-85.3027 211.7484,-63.2632 293.1571,-115.8113 333.6264,-215.3509 32.4531,-79.8228 -3.9589,-303.6368 -85.342,-524.5729 -113.3007,-307.5849 -226.583,-592.7019 -259.5791,-653.3264 -51.2171,-94.1027 -70.6721,-99.5598 -311.3441,-87.3308 -109.0218,5.5396 -302.6094,10.4964 -430.1947,11.0152 -277.6691,1.1292 -286.2747,-2.2685 -295.7704,-116.7738 -3.8357,-46.2525 -0.6599,-74.034 9.1573,-80.1011 8.2664,-5.1089 174.3685,-14.0654 369.1159,-19.9035 323.1286,-9.6866 481.3757,-26.7957 509.6851,-55.105 16.87,-16.8701 -294.2715,-779.642 -548.6037,-1344.9167 -125.715,-279.4122 -464.6442,-978.3192 -474.4279,-978.3192 -9.0321,0 -157.8499,250.8003 -262.9669,443.174 -191.6917,350.8132 -438.9965,948.0213 -699.1421,1688.3352 l -68.1902,194.0538 60.0662,20.7331 c 99.8812,34.4761 320.593,47.4245 560.5622,32.8864 118.6126,-7.1858 253.7049,-13.1209 300.2052,-13.189 l 84.5461,-0.1279 7.2874,79.9281 c 8.7647,96.1305 -7.917,137.8696 -61.2832,153.3367 -21.101,6.1157 -234.0293,12.4219 -473.174,14.0138 -409.5136,2.726 -439.677,4.5276 -518.498,30.9704 l -83.6896,28.0761 -59.8415,144.1697 c -172.374,415.2825 -290.4387,799.3794 -294.7155,958.7902 -3.2979,122.927 48.1106,167.1482 287.5166,247.3195 123.3834,41.3223 202.4483,88.7687 202.4483,121.4921 0,14.9271 -75.5633,38.0164 -120.2018,36.7291 -21.8098,-0.629 -68.4283,-9.1158 -103.5967,-18.8598 z"
           id="path21"
           transform="matrix(1.1822917,0,0,-1.1789271,9191.6352,16309.928)" /><path
           style="fill:#ffffff;stroke-width:12.7885"
           d="m 2780.5961,4937.8403 c -34.6871,-7.0617 -104.748,-32.097 -155.6909,-55.634 -107.7873,-49.8008 -131.5628,-80.4453 -196.6453,-253.4579 -45.3638,-120.5934 -99.7076,-207.0507 -160.0011,-254.5513 -27.6255,-21.7639 -60.0129,-31.4403 -121.1965,-36.2095 l -83.4964,-6.5086 57.1721,-30.3589 c 113.6498,-60.3489 278.7253,-47.1043 384.3722,30.8395 l 42.6775,31.4865 43.4359,-60.6289 c 23.8897,-33.3459 50.1781,-58.7759 58.4185,-56.5111 29.0495,7.9839 84.8805,70.9083 97.503,109.8908 7.0262,21.6992 21.8471,96.4674 32.9353,166.1514 26.4613,166.2971 44.7815,208.3176 101.0776,231.8396 84.2277,35.1926 193.9207,12.1997 225.8201,-47.3344 9.209,-17.187 19.2478,-104.1501 23.6567,-204.9316 7.0007,-160.028 10.2149,-177.7955 37.3983,-206.7309 16.3566,-17.4108 45.0193,-35.4945 63.6949,-40.1861 29.3021,-7.361 41.2586,-0.1142 87.2439,52.8786 l 53.2884,61.4086 36.231,-36.6784 c 130.9163,-132.5329 378.064,-132.0301 418.7255,0.8519 8.288,27.0852 7.85,27.1498 -47.9624,7.0798 -48.1854,-17.3273 -64.4181,-17.8557 -112.3043,-3.6557 -68.5389,20.3243 -155.4062,108.4015 -181.9977,184.5326 -10.2329,29.2966 -28.3981,80.9558 -40.367,114.7982 -44.2107,125.0062 -146.3398,220.4939 -297.3536,278.0165 -84.8994,32.339 -266.3468,44.0202 -366.6357,23.6033 z m -79.3377,-185.7782 c -60.7514,-111.9126 -89.7232,-150.1739 -100.5041,-132.73 -10.4431,16.8973 3.6661,84.8023 27.184,130.8317 16.3868,32.0724 106.0912,104.6723 116.4874,94.2761 2.4882,-2.4882 -16.9371,-44.0582 -43.1673,-92.3778 z m 366.4362,64.0229 c 46.8911,-18.7621 109.5947,-94.3285 78.2721,-94.3285 -18.986,0 -134.0423,81.7259 -139.5313,99.1107 -6.5047,20.602 -1.1344,20.1827 61.2592,-4.7822 z"
           id="path23"
           transform="matrix(1.1822917,0,0,-1.1789271,9191.6352,16309.928)" /><path
           style="fill:#ffffff;stroke-width:12.7885"
           d="m 3702.4748,5257.6216 c -117.8965,-17.2248 -248.5373,-87.1723 -332.8021,-178.1884 -39.6098,-42.7834 -72.0179,-83.9677 -72.0179,-91.5207 0,-8.8477 17.0597,-10.7229 47.9568,-5.2713 88.9222,15.6894 322.9093,24.6781 322.9093,12.4046 0,-6.539 -28.8332,-23.078 -64.0738,-36.7533 -57.5431,-22.33 -61.1586,-25.9427 -35.4721,-35.4447 63.8834,-23.6321 359.327,23.0447 515.3458,81.4188 55.6616,20.8257 66.3868,29.6954 60.9674,50.4194 -4.7509,18.1674 -17.6995,25.226 -46.6474,25.4289 -64.6508,0.4531 -145.6706,45.3447 -218.3444,120.9804 -37.2914,38.8113 -75.7385,69.8643 -85.438,69.0066 -9.6995,-0.8577 -51.2721,-6.4738 -92.3836,-12.4803 z"
           id="path25"
           transform="matrix(1.1822917,0,0,-1.1789271,9191.6352,16309.928)" /><path
           style="fill:#ffffff;stroke-width:12.7885"
           d="m 3252.8951,5472.3613 c -112.1154,-36.439 -362.2438,-44.6658 -480.9342,-15.818 -82.1486,19.9662 -92.1133,20.0808 -120.6422,1.388 -119.9089,-78.5674 -95.9903,-293.7583 44.5675,-400.9653 48.5959,-37.0653 63.5023,-41.8173 120.7196,-38.4835 l 65.2778,3.8034 23.8889,105.505 c 13.1389,58.0277 28.7756,105.505 34.7481,105.505 10.2656,0 18.888,-27.9305 45.3032,-146.7501 25.6841,-115.5313 198.0039,-113.4403 300.8106,3.6501 88.4999,100.7958 118.7531,264.9541 66.7953,362.4416 l -23.8037,44.6624 z"
           id="path27"
           transform="matrix(1.1822917,0,0,-1.1789271,9191.6352,16309.928)" /><path
           style="fill:#ffffff;stroke-width:12.7885"
           d="m 1957.9046,5283.9819 c -61.2189,-35.1084 -66.5446,-41.7378 -58.9762,-73.4138 4.5758,-19.1512 13.2783,-44.513 19.339,-56.3595 18.3769,-35.9204 14.3208,-37.362 -81.6971,-29.0346 -93.6407,8.1212 -188.7996,-11.0744 -193.0665,-38.9457 -2.9016,-18.9531 197.7439,-114.1781 336.937,-159.908 131.9798,-43.3601 295.6155,-60.7757 395.5668,-42.0998 l 56.6718,10.5892 -100.4583,38.1611 c -146.9809,55.8337 -136.9657,67.8404 41.2588,49.4633 82.7594,-8.5334 174.7075,-12.3769 204.3292,-8.541 l 53.8577,6.9744 -96.774,91.0458 c -129.8275,122.1429 -237.1281,194.2396 -335.1977,225.2238 -112.1224,35.4241 -161.7944,32.7216 -241.7905,-13.1552 z"
           id="path29"
           transform="matrix(1.1822917,0,0,-1.1789271,9191.6352,16309.928)" /><path
           style="fill:#ffffff;stroke-width:12.7885"
           d="m 2955.9352,4561.9004 c -26.6269,-152.6678 -30.2965,-215.7194 -41.6795,-716.1552 -6.0797,-267.2794 -17.7203,-521.0723 -25.8681,-563.9844 l -14.8142,-78.022 -93.2942,1.291 c -88.4702,1.2244 -97.0387,-1.2866 -165.7118,-48.562 -39.8297,-27.4193 -96.6541,-72.3594 -126.2765,-99.8671 l -53.8589,-50.0138 109.7497,5.6012 c 113.1644,5.7755 206.1131,35.5428 240.3025,76.9581 15.7551,19.0851 13.1375,21.2811 -25.577,21.4569 -64.5531,0.2931 -84.9197,18.3034 -40.7944,36.0748 47.5485,19.1501 210.2048,55.9827 217.0401,49.1474 2.9465,-2.9465 11.8778,-40.4195 19.8473,-83.2733 11.0656,-59.5021 10.834,-90.1187 -0.9799,-129.5498 -19.3456,-64.5699 -36.6087,-65.9375 -46.4126,-3.6769 -4.1534,26.3762 -11.9758,65.2213 -17.3831,86.3223 l -9.8316,38.3654 -21.5618,-40.9275 c -12.2094,-23.1751 -21.118,-67.5513 -20.5385,-102.3079 1.183,-70.9522 38.3613,-214.8422 55.511,-214.8422 24.234,0 85.7797,122.9039 103.5542,206.793 23.5093,110.9552 23.5773,170.6254 0.4639,407.0543 -34.9873,357.8907 -45.4892,617.0958 -31.8653,786.4919 7.0712,87.9209 11.2221,237.5461 9.2243,332.5006 l -3.6324,172.6446 z"
           id="path31"
           transform="matrix(1.1822917,0,0,-1.1789271,9191.6352,16309.928)" /><path
           style="fill:#ffffff;stroke-width:12.7885"
           d="m 3067.4621,3134.7209 c 0,-87.4374 148.9099,-162.5967 287.7716,-145.2471 38.6683,4.8313 70.306,13.2637 70.306,18.7387 0,19.7019 -175.1262,129.0974 -235.9888,147.4143 -99.2534,29.8709 -122.0888,25.9607 -122.0888,-20.9059 z"
           id="path33"
           transform="matrix(1.1822917,0,0,-1.1789271,9191.6352,16309.928)" /><path
           style="fill:#ffffff;stroke-width:12.7885"
           d="m 2489.8277,3610.2202 c -63.0939,-55.5375 -130.4764,-170.4481 -149.4394,-254.8464 -25.2231,-112.2597 25.362,-180.8456 118.6452,-160.8656 60.3951,12.9358 61.2423,16.6014 13.5207,58.5016 -40.1082,35.2154 -44.4886,45.6031 -44.2356,104.9006 0.3077,72.0943 27.2605,141.983 89.8257,232.9185 22.1341,32.1707 37.701,61.0349 34.5933,64.1427 -3.1078,3.1077 -31.4172,-17.0304 -62.9099,-44.7514 z"
           id="path35"
           transform="matrix(1.1822917,0,0,-1.1789271,9191.6352,16309.928)" /><path
           style="fill:#ffffff;stroke-width:12.7885"
           d="m 2376.1315,3630.9668 c -38.2714,-23.1737 -98.3584,-64.3082 -133.5268,-91.4101 -35.1683,-27.1019 -90.9361,-60.5603 -123.9283,-74.352 -53.667,-22.4342 -58.3948,-27.6237 -44.8806,-49.2632 8.3079,-13.3032 18.2786,-24.1875 22.1571,-24.1875 19.9595,0 242.0164,135.9537 278.8461,170.7228 51.628,48.7393 97.5734,110.6238 82.1314,110.6238 -6.168,0 -42.5275,-18.9602 -80.7989,-42.1338 z"
           id="path37"
           transform="matrix(1.1822917,0,0,-1.1789271,9191.6352,16309.928)" /><path
           style="fill:#ffffff;stroke-width:12.7885"
           d="m 3345.4241,3678.2416 c -3.8131,-3.813 18.4079,-60.4275 49.3799,-125.81 60.8641,-128.4855 69.9832,-191.7099 36.8224,-255.2969 -23.3044,-44.6869 -19.516,-50.5268 22.4314,-34.5784 43.2526,16.4445 86.5805,73.9712 86.5682,114.9367 -0.026,84.6349 -161.9058,334.0447 -195.2019,300.7486 z"
           id="path39"
           transform="matrix(1.1822917,0,0,-1.1789271,9191.6352,16309.928)" /><path
           style="fill:#ffffff;stroke-width:12.7885"
           d="m 3485.6495,3655.6629 c 12.6102,-21.5016 125.1035,-118.9943 154.7731,-134.1345 31.4879,-16.0682 104.9128,-28.4217 104.3429,-17.5555 -1.1015,21.0025 -210.3464,169.1277 -238.9134,169.1277 -22.1695,0 -27.6534,-4.7334 -20.2026,-17.4377 z"
           id="path41"
           transform="matrix(1.1822917,0,0,-1.1789271,9191.6352,16309.928)" /><path
           style="fill:#ffffff;stroke-width:12.7885"
           d="m 1347.4107,3261.7075 c -118.9945,-21.7168 -154.0128,-23.5284 -227.2329,-11.7559 -163.36319,26.2663 -177.10707,22.2308 -350.97994,-103.0557 -118.19602,-85.1677 -197.97136,-125.313 -249.84156,-125.7272 -34.68925,-0.277 -35.16834,-1.4008 -35.16834,-82.4925 0,-94.7631 13.36594,-114.6866 90.95491,-135.5792 73.56944,-19.8101 134.15449,13.6049 265.55847,146.4659 58.92585,59.5793 125.97598,117.2652 149.00029,128.1909 50.63897,24.0298 146.69907,26.7774 146.69907,4.196 0,-8.6179 -15.0692,-54.0778 -33.4871,-101.022 l -33.4871,-85.3529 -42.833,17.8967 c -23.5582,9.8433 -55.41862,17.8969 -70.80095,17.8969 -48.97422,0 -116.8824,-88.5998 -181.02504,-236.1834 C 670.99304,2456.414 617.7794,2394.2521 517.15405,2394.2521 h -45.03497 l 31.61141,-59.4529 c 48.78809,-91.7578 43.75308,-174.0018 -18.993,-310.24 -69.98406,-151.9537 -94.10512,-261.2136 -93.42728,-423.1932 1.16449,-278.2759 91.52758,-518.7325 285.59688,-759.9746 88.66453,-110.21638 190.12227,-198.5029 324.02781,-281.96256 144.6784,-90.17409 218.3406,-112.14263 397.6298,-118.58651 170.2643,-6.11952 282.8454,11.4808 415.0745,64.89055 237.9228,96.10132 457.6642,308.18182 552.4578,533.19752 26.6948,63.3668 29.5188,89.6768 29.4841,274.6946 -0.038,182.671 -3.1413,212.3593 -28.9709,276.8173 -89.4216,223.1528 -281.8335,410.5612 -494.8715,482.0026 -121.4464,40.7266 -216.2587,46.4727 -346.4301,20.9954 -165.8313,-32.4568 -214.2216,-63.043 -230.7881,-145.8752 l -8.4343,-42.1714 55.1349,39.9394 c 178.8691,129.5721 518.5218,114.1929 710.4092,-32.1667 99.9873,-76.2642 206.6547,-247.3345 244.3765,-391.9248 27.1862,-104.2068 26.4599,-318.9951 -1.485,-439.1001 -56.8057,-244.14758 -275.8676,-445.7434 -569.8507,-524.41606 -129.0624,-34.53828 -363.2685,-31.53887 -485.4117,6.21654 -223.3023,69.02446 -378.28862,185.49322 -457.33334,343.67572 -20.99723,42.01916 -64.93608,113.8983 -97.64189,159.7314 -192.13864,269.2581 -229.05544,607.2655 -97.25148,890.4268 45.31382,97.3501 45.23435,97.3812 147.36611,-57.7043 81.08156,-123.1211 114.65724,-145.2438 220.43685,-145.2438 96.99945,0 148.17415,33.0651 198.06685,127.9755 44.8768,85.3689 43.7047,173.2337 -2.9738,222.9207 -56.2008,59.823 -71.0676,50.8749 -71.1527,-42.8259 -0.1266,-139.9774 -67.6825,-218.3333 -156.51473,-181.5378 -53.28602,22.0719 -167.93284,135.1152 -189.58316,186.9317 -27.04801,64.735 -23.14151,209.9097 8.17986,303.9837 24.38763,73.2484 167.44026,333.5672 191.46375,348.4145 12.92029,7.9851 18.09664,-9.6232 45.21068,-153.7936 11.90537,-63.303 28.0631,-121.5552 35.9062,-129.4491 7.843,-7.8941 60.6905,-26.5973 117.4388,-41.5626 150.7819,-39.7635 220.6659,-34.728 164.5362,11.8554 -71.6823,59.4911 -71.7415,160.1729 -0.2241,381.3982 60.6526,187.6173 67.7008,240.7897 39.3335,296.7338 -12.1923,24.0448 -30.8894,53.6687 -41.5491,65.8309 -24.0364,27.4245 -25.0935,27.0255 143.9562,54.3325 70.3367,11.3617 158.9465,30.3406 196.9106,42.1756 59.8583,18.66 64.9536,22.6578 38.3655,30.1015 -56.3496,15.7757 -182.7862,9.3116 -324.7955,-16.6053 z"
           id="path43"
           transform="matrix(1.1822917,0,0,-1.1789271,9191.6352,16309.928)" /><path
           style="fill:#ffffff;stroke-width:12.7885"
           d="m 1392.1704,1871.0737 c -38.6851,-12.6785 -104.1584,-38.2726 -145.496,-56.8756 l -75.1594,-33.8237 6.2121,-64.6504 c 7.8322,-81.5117 61.7019,-141.5858 159.9136,-178.3315 119.9641,-44.8843 360.5319,-29.7023 519.7086,32.7983 27.2542,10.7013 52.8137,16.1964 56.7989,12.2112 3.9852,-3.9852 -22.6298,-37.4972 -59.1445,-74.4711 -56.1983,-56.9052 -66.3902,-74.5743 -66.3902,-115.0965 0,-40.4019 5.4873,-49.9923 35.1683,-61.4653 19.3426,-7.4768 63.9425,-11.2368 99.1108,-8.3557 133.4761,10.935 223.8266,88.3428 232.2305,198.9636 6.406,84.3225 -68.566,232.4082 -145.6892,287.7676 -104.3252,74.8851 -279.1459,53.1292 -332.9637,-41.4363 -12.1747,-21.3927 -26.4519,-38.9322 -31.7272,-38.9766 -5.2752,-0.044 -9.5913,37.3254 -9.5913,83.0443 v 83.1251 l -86.3223,-0.6877 c -47.4773,-0.3783 -117.9738,-11.0611 -156.659,-23.7397 z"
           id="path45"
           transform="matrix(1.1822917,0,0,-1.1789271,9191.6352,16309.928)" /><path
           style="fill:#ffffff;stroke-width:12.7885"
           d="m 1903.7099,1234.2233 c -10.5505,-3.8753 -38.94,-15.0774 -63.0879,-24.8936 l -43.905,-17.8477 56.1591,-57.222 c 62.5288,-63.7122 53.8354,-70.2271 -39.9012,-29.9027 -34.9278,15.0255 -66.6883,24.136 -70.5788,20.2455 -3.8905,-3.8905 4.9168,-34.1801 19.5719,-67.3103 14.655,-33.1302 26.6455,-62.38253 26.6455,-65.00526 0,-2.62272 -17.2645,-4.76859 -38.3655,-4.76859 -21.101,0 -38.3654,-5.10444 -38.3654,-11.34321 0,-6.23876 18.7031,-39.16126 41.5626,-73.16113 44.1374,-65.6476 131.5797,-128.02957 195.0244,-139.13171 36.2549,-6.34424 40.4152,-2.48087 75.6262,70.2287 20.4935,42.31825 67.9707,110.87779 105.505,152.35456 37.5343,41.47674 68.2442,86.10654 68.2442,99.17734 0,42.4223 -45.6799,110.3429 -90.3079,134.2772 -42.198,22.631 -158.8647,30.8177 -203.8272,14.3029 z"
           id="path47"
           transform="matrix(1.1822917,0,0,-1.1789271,9191.6352,16309.928)" /><path
           style="fill:#ffffff;stroke-width:12.7885"
           d="m 1024.06,1432.5949 c -30.62016,-211.7799 -14.1234,-334.8847 49.4347,-368.9 17.9952,-9.6307 57.0054,-12.8424 104.1095,-8.5711 l 75.3307,6.8307 -22.3058,-34.0208 c -44.2611,-67.50698 -55.7067,-98.88853 -55.7841,-152.94938 -0.1152,-80.36456 29.5408,-130.4469 77.2435,-130.4469 21.065,0 87.0745,-23.72358 146.6877,-52.71905 59.6133,-28.99548 133.2372,-55.51994 163.6086,-58.94324 48.9174,-5.5137 59.7863,-1.65866 95.2168,33.77177 73.7469,73.74687 65.5032,212.48323 -20.6851,348.1183 -48.1013,75.6974 -56.7588,80.3456 -104.0746,55.8776 -37.9544,-19.627 -40.7727,-19.0409 -94.7133,19.6964 -51.432,36.9356 -59.304,38.8954 -105.1276,26.1718 -78.3061,-21.7427 -85.5826,-16.6957 -37.1892,25.7943 81.3875,71.4591 51.0372,164.9255 -53.5545,164.9255 -63.8454,0 -50.0982,21.3829 28.4225,44.2095 38.6852,11.2461 70.3367,26.3272 70.3367,33.5137 0,7.1865 -9.0408,30.5493 -20.0907,51.9175 -24.8906,48.1331 -99.946,82.9069 -204.1492,94.5841 l -77.1724,8.6481 z"
           id="path49"
           transform="matrix(1.1822917,0,0,-1.1789271,9191.6352,16309.928)" /><path
           style="fill:#ffffff;stroke-width:12.7885"
           d="m 4517.5427,1376.165 c -27.3578,-18.3555 -93.712,-75.9344 -147.4537,-127.9531 -114.2642,-110.6006 -169.9326,-138.7261 -250.6273,-126.6252 l -56.0883,8.411 20.1945,-39.0519 c 28.3958,-54.9115 84.3291,-79.9764 177.4763,-79.5309 65.3408,0.3126 95.5872,8.9505 182.9869,52.2588 57.5888,28.5364 131.096,77.5316 163.3493,108.8782 35.1433,34.1554 58.6424,49.3335 58.6424,37.8774 0,-42.5651 -39.2558,-106.3271 -121.4906,-197.3337 -83.5819,-92.49726 -121.4906,-154.74661 -121.4906,-199.49786 0,-21.00622 81.72,-107.42578 101.5839,-107.42578 5.6339,0 13.7233,21.76132 17.9763,48.35849 8.448,52.83053 45.41,93.38068 159.6028,175.09619 77.3827,55.37446 91.703,83.09466 91.703,177.51116 0,41.0538 9.6423,85.7128 25.0174,115.8702 24.5005,48.0563 24.5257,50.0277 1.2171,95.4205 -33.2523,64.7581 -84.3563,91.1102 -176.6877,91.1102 -60.8693,0 -86.1623,-6.7041 -125.9117,-33.3737 z"
           id="path51"
           transform="matrix(1.1822917,0,0,-1.1789271,9191.6352,16309.928)" /><path
           style="fill:#ffffff;stroke-width:12.7885"
           d="m 5139.1968,1746.1777 c -42.7169,-30.5746 -52.0555,-31.8992 -204.6158,-29.0237 -229.4798,4.3253 -227.401,4.6578 -276.2313,-44.1725 -74.1215,-74.1215 -52.5333,-159.7739 50.0682,-198.6485 80.7611,-30.5996 199.2075,-5.9342 254.1992,52.9346 35.3121,37.8017 35.9013,37.9393 35.6028,8.3113 -0.167,-16.5696 -14.0477,-63.5517 -30.8461,-104.4047 l -30.5426,-74.2781 31.6786,-12.0442 c 137.6,-52.3153 263.7248,70.3933 263.6554,256.5141 -0.025,68.3034 -28.4832,182.46 -44.3591,177.9436 -2.1173,-0.6024 -23.9915,-15.5117 -48.6093,-33.1319 z"
           id="path53"
           transform="matrix(1.1822917,0,0,-1.1789271,9191.6352,16309.928)" /><path
           style="fill:#ffffff;stroke-width:12.7885"
           d="m 5116.0473,1191.8066 c -58.4391,-35.6294 -85.269,-102.9519 -68.0555,-170.7675 7.2424,-28.53279 11.696,-53.34981 9.8969,-55.14889 -1.7991,-1.79909 -24.2192,10.96355 -49.8224,28.36142 -57.789,39.26857 -60.6968,39.22197 -60.6968,-0.97382 0,-53.08096 33.069,-101.7932 111.1582,-163.74136 70.0569,-55.57621 74.6233,-57.28405 97.5906,-36.49893 37.1816,33.64886 82.1006,117.73068 98.9181,185.16021 17.4842,70.10317 0.5694,154.19517 -41.8677,208.14527 -29.9103,38.0248 -42.5484,38.7358 -97.1214,5.4636 z"
           id="path55"
           transform="matrix(1.1822917,0,0,-1.1789271,9191.6352,16309.928)" /><path
           style="fill:#ffffff;stroke-width:12.7885"
           d="m 4225.1034,1857.5943 c -12.7782,-20.6756 3.5586,-99.0115 31.9757,-153.3256 27.9731,-53.4655 159.9565,-201.9451 170.5153,-191.8274 4.0115,3.8439 -0.9147,38.1052 -10.9471,76.1362 -10.0324,38.031 -16.3823,71.0057 -14.1109,73.2771 2.2714,2.2713 25.5261,-19.5534 51.6771,-48.4994 26.151,-28.9461 49.2699,-50.6787 51.3754,-48.2948 10.5806,11.9798 62.7244,122.854 77.5804,164.9604 l 16.9413,48.0168 -142.8856,39.3994 c -192.2325,53.0064 -221.0944,57.9996 -232.1216,40.1573 z"
           id="path57"
           transform="matrix(1.1822917,0,0,-1.1789271,9191.6352,16309.928)" /><path
           style="fill:#ffffff;stroke-width:12.7885"
           d="m 4199.2431,1506.2924 c -21.101,-9.5378 -57.1857,-31.5933 -80.1881,-49.0122 l -41.8226,-31.6707 29.0341,-18.9755 c 70.6352,-46.1644 140.4207,-73.8262 186.2493,-73.8262 66.3543,0 73.2704,10.8033 33.4945,52.3205 -33.371,34.8318 -33.3859,34.9437 -6.5733,49.2934 33.0673,17.6971 34.2544,41.2043 3.4868,69.0486 -28.0429,25.3785 -71.5804,26.3719 -123.6807,2.8221 z"
           id="path59"
           transform="matrix(1.1822917,0,0,-1.1789271,9191.6352,16309.928)" /><path
           style="fill:#ffffff;stroke-width:12.7885"
           d="m 4161.4726,907.59061 c -2.748,-8.79208 -8.583,-37.56618 -12.9666,-63.94243 -7.2765,-43.78316 -5.4155,-47.96649 21.3835,-48.06798 16.1444,-0.0611 59.9945,-3.79085 97.4446,-8.28826 l 68.0911,-8.17709 -4.1487,43.45659 c -3.5318,36.996 -12.6317,47.73437 -61.2094,72.23068 -63.9135,32.22973 -101.1474,36.61451 -108.5945,12.78849 z"
           id="path61"
           transform="matrix(1.1822917,0,0,-1.1789271,9191.6352,16309.928)" /><path
           style="fill:#ffffff;stroke-width:12.7885"
           d=""
           id="path63"
           transform="matrix(1.1822917,0,0,-1.1789271,9191.6352,16309.928)" /><path
           style="fill:#ffffff;stroke-width:12.7885"
           d="m 657.79002,4865.6269 c 4.68089,-26.3762 18.49022,-91.1179 30.68737,-143.8704 l 22.17667,-95.9137 -62.24484,-23.3354 c -42.33622,-15.8717 -68.32731,-35.0976 -81.26184,-60.1102 -55.90654,-108.1114 22.03458,-263.1736 154.20869,-306.795 44.42871,-14.6628 45.71221,-16.826 37.79353,-63.6962 -18.52529,-109.6502 38.93655,-284.5363 135.73756,-413.1194 68.34457,-90.7838 94.97044,-107.7606 50.32059,-32.0848 -72.57446,123.0046 -103.35274,290.8934 -72.67442,396.4231 23.02667,79.2089 54.38905,113.4309 137.74287,150.3023 97.6089,43.177 104.4046,96.6624 41.1212,323.6415 -4.8641,17.4461 -20.1462,22.3799 -69.32029,22.3799 h -63.08064 l -0.0473,54.351 c -0.0793,89.7477 -68.83879,172.7294 -182.46573,220.2058 -76.07547,31.7863 -88.57048,27.2803 -78.69293,-28.3785 z"
           id="path65"
           transform="matrix(1.1822917,0,0,-1.1789271,9191.6352,16309.928)" /><path
           style="fill:#ffffff;stroke-width:12.7885"
           d="m 586.49585,3839.6343 c 0,-6.8779 15.50699,-44.1234 34.46,-82.7678 18.95301,-38.6444 31.02212,-73.7005 26.82024,-77.9024 -4.20187,-4.2019 -42.49897,-0.7816 -85.10467,7.6005 -42.60569,8.3822 -85.46247,12.1714 -95.23729,8.4204 -23.98245,-9.2029 -50.11446,-140.0572 -30.40274,-152.2397 32.60607,-20.1517 181.82452,-25.1242 300.41601,-10.011 69.18463,8.8168 159.32079,13.2499 200.30261,9.8514 l 74.51239,-6.1791 -36.92369,26.7844 c -94.02247,68.204 -222.32101,177.0914 -271.41014,230.3469 -36.25193,39.3287 -64.44513,58.6015 -85.72489,58.6015 -17.43931,0 -31.70783,-5.6273 -31.70783,-12.5051 z"
           id="path67"
           transform="matrix(1.1822917,0,0,-1.1789271,9191.6352,16309.928)" /><path
           style="fill:#ffffff;stroke-width:12.7885"
           d="m 1140.4439,4143.0775 c -75.1659,-79.4134 -100.6404,-171.2223 -79.3965,-286.1411 16.0272,-86.699 45.53,-149.1775 118.529,-251.0106 45.6109,-63.6268 57.0551,-72.5597 84.683,-66.1 45.4194,10.6194 46.2828,14.6845 9.2985,43.7763 -69.6533,54.7894 -70.197,107.4702 -3.7424,362.6539 18.0595,69.3483 32.8355,134.5327 32.8355,144.8542 0,26.927 -70.3667,93.5299 -98.8154,93.5299 -13.2286,0 -41.7549,-18.7032 -63.3917,-41.5626 z"
           id="path69"
           transform="matrix(1.1822917,0,0,-1.1789271,9191.6352,16309.928)" /><path
           style="fill:#ffffff;stroke-width:12.7885"
           d="m 4803.5807,4281.243 c -4.3876,-54.6603 -20.0586,-111.1596 -46.5106,-167.6861 -21.9413,-46.8877 -39.8934,-99.632 -39.8934,-117.2097 0,-18.2724 38.3379,-89.3866 89.5194,-166.0525 77.9836,-116.8133 89.5194,-141.5718 89.5194,-192.1279 v -58.0348 l 23.8192,30.4987 c 113.422,145.2284 135.9967,380.9896 53.4312,558.014 -34.9806,75.0001 -130.3098,195.0342 -154.8931,195.0342 -4.6062,0 -11.3526,-37.0962 -14.9921,-82.4359 z"
           id="path71"
           transform="matrix(1.1822917,0,0,-1.1789271,9191.6352,16309.928)" /><path
           style="fill:#ffffff;stroke-width:12.7885"
           d="m 5306.9488,4980.8513 c -54.4442,-26.3681 -91.6912,-85.8084 -136.472,-217.7876 -19.7366,-58.1682 -39.7996,-101.3294 -44.5845,-95.9137 -4.7848,5.4157 -19.2727,40.0596 -32.1951,76.9863 -12.9225,36.9268 -27.7,67.1396 -32.8388,67.1396 -5.1389,0 -22.3164,-33.0902 -38.1722,-73.5338 -38.6652,-98.6234 -40.426,-274.0283 -3.6907,-367.6631 23.5719,-60.0825 28.6859,-64.7078 84.8393,-76.7309 87.0032,-18.6285 93.1136,-29.125 91.5724,-157.3043 -1.1452,-95.25 -8.9492,-133.2058 -54.2337,-263.7733 -29.0928,-83.8824 -50.4952,-154.9142 -47.561,-157.8485 10.6669,-10.6668 83.7602,103.7571 108.474,169.8107 13.9456,37.2728 34.555,115.7963 45.7988,174.4967 34.7285,181.306 28.4735,167.0796 69.4981,158.069 78.2683,-17.1906 170.1969,54.4527 221.1643,172.3614 25.7599,59.5933 66.2285,246.6781 58.4239,270.0918 -2.4332,7.2996 -33.6718,-10.0154 -69.4191,-38.4779 l -64.9951,-51.7499 -7.5321,85.9577 c -6.8461,78.1294 -41.724,199.3822 -87.9366,305.7114 l -17.6955,40.7149 z m -34.8915,-420.8902 c 4.3233,-55.2027 3.2622,-132.0201 -2.3579,-170.7053 l -10.2183,-70.3366 -26.6874,42.5065 c -14.6781,23.3786 -30.3873,65.6438 -34.9092,93.9227 -8.4449,52.811 9.0558,178.6144 33.2296,238.8721 l 13.612,33.9302 9.7354,-33.9105 c 5.3544,-18.6508 13.2726,-79.0764 17.5958,-134.2791 z"
           id="path73"
           transform="matrix(1.1822917,0,0,-1.1789271,9191.6352,16309.928)" /><path
           style="fill:#ffffff;stroke-width:12.7885"
           d="m 5438.7966,3833.4041 c -117.0013,-21.2495 -191.4359,-54.8474 -254.8864,-115.0494 l -51.1077,-48.4911 51.154,-15.6983 c 28.1346,-8.6341 96.0271,-39.5573 150.8722,-68.7182 114.6269,-60.9466 142.0837,-64.1768 202.117,-23.7782 50.0077,33.652 70.7174,85.2237 83.2173,207.2297 l 8.5283,83.2408 -49.7229,-1.1541 c -27.3475,-0.6348 -90.4248,-8.5464 -140.1718,-17.5812 z"
           id="path75"
           transform="matrix(1.1822917,0,0,-1.1789271,9191.6352,16309.928)" /><path
           style="fill:#ffffff;stroke-width:12.7885"
           d="m 4544.5322,3208.0427 c 209.3605,-67.7379 313.3179,-137.7679 313.3179,-211.0638 0,-14.4953 -17.6908,-46.5036 -39.3128,-71.1297 l -39.3127,-44.7747 34.4518,-131.512 c 38.6185,-147.4178 46.9191,-312.1379 20.3581,-403.992 -8.7593,-30.2918 -36.4279,-77.769 -61.4858,-105.505 -39.0591,-43.2338 -41.9702,-50.4292 -20.403,-50.4292 69.9569,0 107.9384,28.005 145.4292,107.2297 20.3541,43.0118 40.5251,96.9065 44.8243,119.7659 4.2992,22.8594 11.7844,41.5626 16.6337,41.5626 4.8493,0 21.3985,-25.8967 36.776,-57.5482 36.0334,-74.1677 78.8373,-79.638 109.9595,-14.0529 27.7141,58.4031 26.0695,95.7993 -10.1789,231.4572 -60.3156,225.7281 -56.8124,286.2557 19.1656,331.137 46.0213,27.1854 49.5327,24.9555 140.2791,-89.0872 74.8956,-94.1225 150.8433,-138.1992 215.7579,-125.2162 37.9071,7.5814 41.057,11.7114 34.383,45.0813 -6.6823,33.4117 -2.6996,38.5948 44.0213,57.2888 50.3037,20.1275 88.7513,69.3067 88.7513,113.5236 0,16.0171 -6.4875,18.3228 -28.7741,10.2265 -76.6954,-27.8622 -146.5806,-9.7893 -399.6402,103.3501 -75.5676,33.7853 -120.1237,45.7813 -170.471,45.8966 -42.2437,0.097 -108.2751,14.314 -173.6501,37.3884 -107.6655,38.0012 -381.3079,104.1109 -424.7278,102.6105 -13.2205,-0.4568 33.511,-19.4501 103.8477,-42.2073 z"
           id="path77"
           transform="matrix(1.1822917,0,0,-1.1789271,9191.6352,16309.928)" /></g></g></g></svg>
